<?xml version="1.0" encoding="utf-8"?>
<!-- Generator: Adobe Illustrator 16.0.3, SVG Export Plug-In . SVG Version: 6.00 Build 0)  -->
<!DOCTYPE svg PUBLIC "-//W3C//DTD SVG 1.1//EN" "http://www.w3.org/Graphics/SVG/1.1/DTD/svg11.dtd">
<svg version="1.1" id="Ebene_1" xmlns="http://www.w3.org/2000/svg" xmlns:xlink="http://www.w3.org/1999/xlink" x="0px" y="0px"
	 width="92.636px" height="90px" viewBox="141.364 23 92.636 90" enable-background="new 141.364 23 92.636 90"
	 xml:space="preserve">
<g>
	<g>
		<path fill="none" d="M149,113c-6.667,0-13.333,0-20,0c0-30,0-60,0-90c16.667,0,33.333,0,50,0c0.058,0.308,0.037,0.61-0.062,0.907
			c-0.43,0.297-0.86,0.594-1.29,0.892c-0.298-0.132-0.512-0.049-0.644,0.249c-0.674,0.315-1.348,0.63-2.021,0.945
			c-0.456,0.282-0.912,0.563-1.367,0.846c-0.274-0.108-0.468-0.027-0.583,0.244c-1.611,1.654-3.221,3.31-4.832,4.964
			c-0.238,0.295-0.477,0.591-0.715,0.886c-0.203,0.29-0.407,0.581-0.61,0.871c-0.611,1.073-1.223,2.146-1.835,3.219
			c-0.25,0.241-0.364,0.535-0.341,0.882c-0.173,0.376-0.347,0.752-0.52,1.127c-0.207,0.28-0.275,0.59-0.205,0.931
			c-0.279,0.697-0.559,1.395-0.838,2.092c-1.162,6.557-6.019,11.148-8.848,16.804c-1.429,2.857-3.228,4.238-6.255,4.324
			c-3.09,2.583-3.323,4.599-1.019,8.81c-0.702,3.927-1.404,7.854-2.106,11.78c-0.467,1.191-1.191,2.35-1.356,3.582
			c-0.829,6.176-1.708,12.355-2.167,18.564c-0.244,3.299,1.272,5.747,5.194,5.678c0.798-0.016,1.604,0.332,2.405,0.514
			C148.988,112.407,148.993,112.703,149,113z"/>
		<path fill="none" d="M234,66c0,15.602,0,31.201,0,47c-23.666,0-47.333,0-71,0c0.004-0.3,0.009-0.6,0.015-0.898
			c3.994-1.07,7.988-2.142,11.982-3.213c0.467-0.238,0.934-0.478,1.401-0.717l0.349,0.016l0.251-0.242
			c0.68-0.305,1.36-0.611,2.041-0.918l-0.022,0.01c0.645-0.354,1.29-0.709,1.935-1.063l0.028-0.015
			c0.44-0.276,0.881-0.553,1.321-0.829l0.384,0.004l0.311-0.226c0.33-0.093,0.658-0.185,0.988-0.275
			c0.352-0.204,0.701-0.409,1.053-0.614c0.318-0.09,0.636-0.181,0.953-0.271c0.363-0.229,0.729-0.46,1.092-0.69l-0.045,0.008
			c0.316-0.104,0.634-0.211,0.951-0.315c0.342-0.247,0.684-0.493,1.025-0.739l-0.007,0.004c0.435-0.289,0.866-0.58,1.3-0.871
			c0.316,0.047,0.547-0.074,0.691-0.358c0.335-0.261,0.669-0.521,1.003-0.782v0.003c0.479-0.278,0.955-0.56,1.435-0.838h0.354
			l0.22-0.278c0.408-0.268,0.816-0.535,1.226-0.804c0.371,0.056,0.638-0.088,0.799-0.428c0.27-0.234,0.539-0.47,0.809-0.703
			l0.111-0.099c0.32-0.295,0.643-0.59,0.963-0.885l0.055-0.045c0.346-0.309,0.689-0.615,1.033-0.924l-0.002,0.002
			c0.324-0.338,0.65-0.676,0.977-1.013l0.012-0.017c0.265-0.316,0.529-0.636,0.796-0.953c0.299-0.137,0.414-0.365,0.346-0.688
			c0.302-0.441,0.604-0.883,0.906-1.324c1.022-1.574,2.049-3.146,3.071-4.722c0.22-0.421,0.438-0.843,0.658-1.263
			c0.733-0.959-0.555-3.334,2.076-2.967c1.049,0.295,2.1,0.592,3.148,0.89l0.35,0.225l0.406-0.079
			c0.758,0.241,1.516,0.483,2.271,0.727c0.32,0.08,0.643,0.16,0.963,0.242c0.336,0.315,0.675,0.631,1.013,0.947
			c0.032,0.33,0.036,0.661,0.011,0.992c-0.277,0.525-0.556,1.053-0.834,1.58c0.289-0.139,0.578-0.275,0.867-0.415
			c0.414-0.301,0.828-0.603,1.242-0.901l-0.205-0.197l0.166,0.231c0.197-0.424,0.396-0.848,0.597-1.271
			c-0.315-0.328-0.63-0.655-0.944-0.983c-0.635-0.325-1.27-0.651-1.901-0.978c-0.195-0.26-0.455-0.379-0.779-0.36l0.021-0.054
			l-0.051-0.229c0.604-0.477,1.211-0.952,1.815-1.431l0.478,0.037l0.439-0.19c0.37-0.222,0.74-0.442,1.109-0.665
			c0.322-0.08,0.643-0.16,0.963-0.238c0.703-0.297,1.404-0.592,2.107-0.889c0.281-0.137,0.563-0.273,0.846-0.41
			c0.34-0.246,0.682-0.494,1.021-0.74c0.377-0.285,0.754-0.57,1.131-0.855c0.634-0.396,1.269-0.795,1.9-1.193
			c0.348-0.275,0.694-0.553,1.043-0.828l-0.019,0.014c0.364-0.32,0.729-0.643,1.094-0.963l-0.043,0.037
			c0.354-0.342,0.705-0.686,1.058-1.027l-0.024,0.053c0.317-0.367,0.635-0.734,0.953-1.102l-0.019,0.023
			c0.291-0.365,0.581-0.729,0.871-1.096l0.036-0.061c0.328-0.635,0.658-1.27,0.988-1.903c0.258-0.19,0.326-0.435,0.207-0.729
			c0.344-0.748,0.688-1.498,1.031-2.246l0.414,0.016L234,66z"/>
		<path fill="none" d="M185,23c16.334,0,32.666,0,49,0c0,13,0,26,0,39c-0.283-0.036-0.566-0.043-0.852-0.02
			c-0.146-0.285-0.287-0.573-0.424-0.864c-0.201-0.41-0.404-0.82-0.605-1.231c-0.023-0.31-0.126-0.592-0.307-0.845
			c-0.291-0.649-0.582-1.298-0.873-1.947l-0.025-0.048c-0.303-0.351-0.605-0.701-0.91-1.052l0.004,0.002
			c-0.347-0.271-0.693-0.543-1.039-0.814c-0.178-0.253-0.422-0.364-0.729-0.332c-1.758-0.588-3.516-1.176-5.273-1.764
			c-0.586-0.066-1.172-0.133-1.758-0.199c-1.773,0.018-3.549,0.035-5.322,0.053c-1.949,0.767-3.898,1.534-5.847,2.301
			c-2.084,0.813-4.168,1.623-6.472,2.521c-3.211-7.415-10.305-9.241-16.731-12.116c0.485-1.207,0.903-2.245,1.322-3.284
			c0.229-0.45,0.46-0.901,0.69-1.352c0.246-0.21,0.346-0.476,0.295-0.796c0.252-0.749,0.504-1.496,0.756-2.244
			c0.066-0.608,0.135-1.217,0.201-1.824c-0.01-2.765-0.019-5.528-0.027-8.293c-1.657-1.341-3.314-2.683-4.973-4.024
			C185.027,23.555,184.994,23.28,185,23z"/>
		<path fill="#B8B8B8" d="M159,113c-2,0-4,0-6,0c0-0.275-0.016-0.549-0.046-0.822c2.031,0.01,4.062,0.02,6.093,0.027
			C159.037,112.471,159.021,112.734,159,113z"/>
		<path fill="#9E9E9E" d="M185,23c-0.006,0.28,0.027,0.555,0.102,0.825c-2.055,0.027-4.108,0.055-6.164,0.082
			c0.099-0.297,0.12-0.6,0.062-0.907C181,23,183,23,185,23z"/>
		<path fill="#E2E2E2" d="M159,113c0.021-0.266,0.037-0.529,0.046-0.795c1.323-0.034,2.646-0.068,3.969-0.104
			c-0.006,0.299-0.011,0.599-0.015,0.897C161.667,113,160.333,113,159,113z"/>
		<path fill="#E7E7E7" d="M233.148,61.98c0.285-0.023,0.567-0.017,0.852,0.02c0,1.333,0,2.667,0,4l-0.414,0.036l-0.414-0.015
			C233.164,64.674,233.156,63.327,233.148,61.98z"/>
		<path fill="#E7E7E7" d="M152.954,112.178c0.031,0.273,0.046,0.547,0.046,0.822c-1.333,0-2.667,0-4,0
			c-0.007-0.297-0.012-0.593-0.014-0.891C150.309,112.133,151.631,112.154,152.954,112.178z"/>
		<path fill="#050505" d="M188.159,42.358c-0.419,1.039-0.837,2.077-1.322,3.284c6.427,2.875,13.521,4.701,16.731,12.116
			c2.304-0.896,4.388-1.708,6.472-2.52c0.421,0.3,0.843,0.599,1.263,0.897c-0.102,0.287-0.219,0.568-0.35,0.845
			c-0.305,0.106-0.608,0.213-0.912,0.319c-0.309,0.252-0.616,0.504-0.924,0.757l-0.059,0.047c-0.406,0.273-0.813,0.547-1.222,0.819
			c-0.892,0.65-1.78,1.301-2.672,1.952c0.146,0.291,0.291,0.582,0.437,0.873c0.803-0.159,1.606-0.319,2.41-0.479
			c0.039,0.367,0.078,0.733,0.117,1.101c0.033,0.236,0.055,0.475,0.063,0.713l-0.1,0.11c-2.52,1.553-2.617,3.574-1.141,5.9
			c-0.038,2.629-0.076,5.26-0.113,7.889c-0.598-0.662-1.195-1.326-1.793-1.987c-1.293-5.128-2.508-10.276-3.906-15.375
			c-0.977-3.552-3.34-5.938-6.662-7.602c-6.377-3.193-13.168-4.709-20.187-4.594c-4.495,0.074-9.513-0.309-12.574,4.331
			c-1.914,2.902-3.756,5.852-5.657,8.763c-1.004,1.538-0.657,2.653,0.951,3.446c-0.002,0.293-0.005,0.587-0.007,0.88
			c-1.54-0.326-3.132-0.438-3.521,1.521c-0.583,2.939-4.528,5.298-1.583,8.855c0.035,0.35,0.071,0.699,0.106,1.049
			c-1.003,0.477-2.556,0.698-2.91,1.471c-1.22,2.662-2.022,5.518-2.983,8.299c-0.401-0.756-0.803-1.512-1.205-2.266
			c0.702-3.928,1.404-7.854,2.106-11.781l-0.057,0.068c0.568-0.381,1.137-0.763,1.705-1.144c0.533-1.619,1.066-3.237,1.599-4.858
			c1.378-1.699,0.695-2.199-1.171-2.015c-0.353-0.287-0.706-0.574-1.058-0.862c3.027-0.086,4.826-1.467,6.255-4.324
			c2.829-5.655,7.686-10.247,8.848-16.804c0.32,0.373,0.64,0.746,0.96,1.119c0.001,0.547,0.003,1.094,0.005,1.641
			c0.739,0.316,1.478,0.634,2.217,0.95c0.231-0.234,0.463-0.469,0.694-0.702c0.324-0.041,0.649-0.082,0.973-0.123
			c4.338-0.022,8.676-0.045,13.014-0.068c0.664-0.032,1.328-0.063,1.991-0.096c0.936-0.93,1.869-1.858,2.806-2.787
			c0.172-0.302,0.345-0.604,0.517-0.904c0.346-0.385,0.689-0.769,1.035-1.152c0.205-0.329,0.41-0.658,0.615-0.987
			c0.002-0.311,0.066-0.607,0.197-0.89l0.423-0.06l0.428,0.016l-0.021-0.019c0.052,0.74,0.102,1.479,0.152,2.22
			c0.049,0.32-0.05,0.586-0.297,0.796C188.619,41.457,188.389,41.908,188.159,42.358z"/>
		<path fill="#0B0B0B" d="M144.91,83.771c0.401,0.756,0.803,1.511,1.205,2.267c-0.92,4.762-1.841,9.522-2.642,13.665
			c2.745,0.932,5.146,1.746,7.547,2.561c0.416,0.213,0.832,0.424,1.248,0.635l0.434-0.033l0.308,0.308
			c0.262,0.271,0.524,0.543,0.786,0.813c0.075,0.338,0.15,0.676,0.225,1.013c-0.303,0.008-0.606,0.017-0.909,0.024
			c-0.288-0.035-0.577-0.049-0.867-0.041c-1.75-0.744-3.501-1.488-5.252-2.232c-0.544-0.098-1.088-0.195-1.632-0.292
			c0.058,0.511,0.116,1.021,0.173,1.528c0.172,0.287,0.344,0.574,0.516,0.861c-0.003,0.286,0.026,0.569,0.089,0.85l-0.229,0.41
			c-0.304-0.025-0.606-0.064-0.907-0.116c-0.335-0.339-0.67-0.677-1.005-1.017c-0.292-0.111-0.583-0.223-0.875-0.334
			c0.266,0.781,0.532,1.563,0.797,2.346c0.32,0.354,0.64,0.709,0.959,1.063c2.451,0.634,4.933,1.896,7.347,1.779
			c6.885-0.332,13.744-1.228,20.612-1.899c0.385-0.209,0.77-0.418,1.155-0.629c0.301-0.113,0.602-0.229,0.902-0.344
			c0.368-0.236,0.735-0.475,1.103-0.71c0.191-0.272,0.452-0.388,0.781-0.347c0.415-0.283,0.829-0.566,1.243-0.851l0.039-0.017
			c0.646-0.316,1.292-0.633,1.938-0.949l0.303-0.252l0.394,0.027c0.434-0.211,0.867-0.422,1.302-0.633l0.381-0.297l0.483,0.004
			c0.381-0.199,0.761-0.396,1.141-0.596c0.32-0.117,0.641-0.236,0.961-0.355c0.348-0.232,0.697-0.467,1.045-0.698
			c0.21-0.289,0.492-0.407,0.846-0.354c0.386-0.238,0.771-0.478,1.154-0.716c0.206-0.276,0.477-0.374,0.811-0.295
			c0.396-0.239,0.787-0.479,1.183-0.718c0.188-0.275,0.444-0.381,0.772-0.313c0.408,0.036,0.816,0.074,1.226,0.112h-0.005
			c0.003,0.333,0.007,0.667,0.009,1v-0.003c-0.334,0.261-0.668,0.521-1.003,0.781c-0.145,0.285-0.375,0.406-0.691,0.359
			c-0.434,0.291-0.865,0.582-1.3,0.871l0.007-0.004c-0.341-0.009-0.683-0.018-1.023-0.025c-0.317,0.36-0.637,0.722-0.953,1.082
			l0.045-0.008c-0.363,0.229-0.729,0.459-1.092,0.689c-0.317,0.09-0.635,0.18-0.953,0.27c-0.355-0.018-0.711-0.033-1.066-0.052
			c-0.324,0.313-0.649,0.629-0.975,0.942l-0.311,0.226l-0.383-0.004c-0.44,0.276-0.882,0.554-1.322,0.829l-0.028,0.014
			c-0.645,0.354-1.29,0.709-1.935,1.063l0.022-0.009c-0.68,0.306-1.36,0.611-2.041,0.918l-0.251,0.242l-0.349-0.017
			c-0.467,0.239-0.934,0.479-1.401,0.717c-3.994,1.071-7.988,2.142-11.982,3.214c-1.323,0.033-2.646,0.068-3.969,0.104
			c-2.031-0.01-4.062-0.02-6.093-0.027c-1.322-0.021-2.645-0.045-3.967-0.066c-0.802-0.183-1.607-0.529-2.405-0.516
			c-3.922,0.07-5.438-2.378-5.194-5.677c0.458-6.209,1.338-12.39,2.167-18.563C143.719,86.121,144.443,84.964,144.91,83.771z"/>
		<path fill="#191818" d="M178.938,23.907c2.054-0.027,4.109-0.055,6.164-0.082c1.657,1.342,3.315,2.684,4.974,4.024
			c-0.283,0.729-0.566,1.459-0.851,2.188c-0.43-0.614-0.858-1.229-1.289-1.843c-0.326-0.054-0.651-0.108-0.979-0.163
			c-0.331-0.29-0.662-0.579-0.994-0.869c-2.332-0.493-4.663-0.987-6.995-1.48c-0.44-0.294-0.88-0.589-1.32-0.883
			C178.078,24.501,178.508,24.204,178.938,23.907z"/>
		<path fill="#181818" d="M148.035,63.182c0.353,0.288,0.706,0.575,1.058,0.862c-0.083,0.251-0.133,0.509-0.151,0.771
			c-0.404,0.604-0.807,1.209-1.211,1.813c-0.169,0.466-0.339,0.931-0.508,1.396c0.022,0.969,0.044,1.938,0.066,2.904
			c-0.11,0.377-0.219,0.756-0.329,1.133l0.057-0.068C144.711,67.779,144.945,65.766,148.035,63.182z"/>
		<path fill="#2E2E2E" d="M168.201,32.047c1.611-1.654,3.221-3.31,4.832-4.964c0.387,0.346,0.774,0.69,1.161,1.036
			c-0.727,0.687-1.453,1.373-2.18,2.06c-0.327,0.279-0.653,0.559-0.98,0.839l-0.017,0.015c-0.336,0.324-0.672,0.648-1.009,0.972
			l-0.003,0.005c-0.323,0.104-0.646,0.104-0.969,0C168.764,32.162,168.486,32.175,168.201,32.047z"/>
		<path fill="#363535" d="M164.098,43.173c-0.32-0.373-0.641-0.746-0.96-1.119c0.279-0.697,0.559-1.395,0.838-2.092
			c0.313,0.338,0.626,0.676,0.939,1.015c0.369,0.343,0.737,0.686,1.106,1.028c0.292-0.01,0.584-0.018,0.876-0.025
			c-0.192,1.262-0.385,2.522-0.577,3.784c-0.739-0.316-1.478-0.634-2.217-0.95C164.102,44.267,164.1,43.72,164.098,43.173z"/>
		<path fill="#4B4B4B" d="M165.041,37.022c0.612-1.073,1.224-2.146,1.835-3.219c0.318,0.387,0.637,0.774,0.956,1.161
			c0.022,0.302,0.027,0.603,0.015,0.904c-0.21,0.786-0.42,1.572-0.632,2.356c-0.358-0.055-0.716-0.109-1.074-0.163
			c-0.188,0.086-0.353,0.056-0.497-0.093C165.443,37.654,165.242,37.338,165.041,37.022z"/>
		<path fill="#0C0C0C" d="M174.983,25.993c0.674-0.315,1.348-0.63,2.021-0.945c0.029,0.417,0.059,0.833,0.088,1.249
			c-0.367,0.2-0.734,0.399-1.101,0.6C175.655,26.595,175.319,26.294,174.983,25.993z"/>
		<path fill="#151515" d="M164.18,39.031c0.173-0.375,0.347-0.751,0.52-1.127c0.317-0.013,0.631,0.01,0.944,0.065
			c0.144,0.148,0.309,0.179,0.497,0.093c-0.027,0.663-0.054,1.325-0.081,1.987c-0.334,0.025-0.667,0.051-1.001,0.076
			C164.766,39.761,164.473,39.396,164.18,39.031z"/>
		<path fill="#272727" d="M167.832,34.965c-0.319-0.387-0.637-0.774-0.956-1.161c0.203-0.29,0.407-0.581,0.61-0.871
			c0.438-0.006,0.876-0.011,1.314-0.017C168.477,33.599,168.154,34.282,167.832,34.965z"/>
		<path d="M177.092,26.297c-0.029-0.416-0.059-0.832-0.088-1.249c0.131-0.298,0.346-0.381,0.644-0.249
			c0.44,0.294,0.88,0.589,1.32,0.883c-0.305,0.186-0.609,0.371-0.914,0.557C177.729,26.189,177.409,26.209,177.092,26.297z"/>
		<path d="M174.983,25.993c0.336,0.301,0.672,0.602,1.008,0.903c-0.109,0.254-0.298,0.351-0.568,0.289
			c-0.602-0.116-1.205-0.231-1.807-0.347C174.071,26.557,174.527,26.275,174.983,25.993z"/>
		<path d="M173.616,26.839c0.603,0.115,1.205,0.23,1.807,0.347c-0.117,0.301-0.253,0.593-0.41,0.876
			c-0.274,0.009-0.547,0.028-0.819,0.058c-0.387-0.346-0.774-0.69-1.161-1.036C173.147,26.812,173.342,26.73,173.616,26.839z"/>
		<path d="M164.18,39.031c0.293,0.365,0.586,0.729,0.879,1.095c0.084,0.306,0.036,0.589-0.144,0.851
			c-0.313-0.339-0.626-0.677-0.939-1.015C163.905,39.621,163.974,39.312,164.18,39.031z"/>
		<path d="M165.644,37.97c-0.313-0.056-0.627-0.078-0.944-0.065c-0.023-0.347,0.09-0.641,0.341-0.882
			C165.242,37.338,165.443,37.654,165.644,37.97z"/>
		<path d="M168.8,32.916c-0.438,0.006-0.876,0.011-1.314,0.017c0.238-0.295,0.477-0.591,0.715-0.886
			c0.285,0.128,0.563,0.115,0.835-0.038c0.021,0.343,0.041,0.687,0.062,1.029L168.8,32.916z"/>
		<path fill="#1D1D1D" d="M205.047,74.994c0.598,0.662,1.195,1.324,1.793,1.986c-0.014,0.347-0.027,0.69-0.042,1.035
			c0.042,0.678,0.083,1.354,0.124,2.03c1.338,0.323,2.699,0.571,4.006,0.992c1.118,0.358,2.174,0.917,3.256,1.387l0.051,0.229
			c-0.828,0.146-1.656,0.293-2.485,0.439l-0.406,0.079l-0.35-0.226c-1.05-0.297-2.101-0.594-3.148-0.889
			c-2.631-0.367-1.343,2.008-2.075,2.967c-0.221,0.42-0.439,0.842-0.658,1.263c-1.023,1.573-2.049,3.147-3.072,4.722
			c-0.303,0.441-0.604,0.883-0.906,1.324c0.068,0.32-0.047,0.551-0.346,0.688c-0.266,0.317-0.531,0.637-0.797,0.953l-0.012,0.017
			c-0.324,0.337-0.65,0.675-0.976,1.013l0.002-0.002c-0.344,0.309-0.688,0.615-1.032,0.923l-0.056,0.046
			c-0.319,0.295-0.642,0.59-0.963,0.885l-0.111,0.099c-0.271,0.233-0.539,0.469-0.809,0.703c-0.161,0.34-0.429,0.481-0.8,0.428
			c-0.407,0.269-0.815,0.536-1.225,0.804l-0.22,0.278c0,0-0.354,0-0.356,0c-0.479-0.056-0.961-0.108-1.439-0.162h0.005
			c0-0.327,0.005-0.653,0.015-0.979l0.02-0.01c0.314-0.252,0.629-0.504,0.943-0.757c0.114-0.317,0.338-0.45,0.672-0.396
			c0.438-0.314,0.875-0.631,1.313-0.945l-0.05,0.034c0.357-0.274,0.718-0.55,1.076-0.825c0.736-0.715,1.474-1.43,2.211-2.145
			c0.275-0.305,0.553-0.609,0.828-0.916l0.035-0.041c0.299-0.379,0.6-0.756,0.898-1.135c1.469-2.311,2.938-4.621,4.406-6.933
			c0.17-0.435,0.338-0.87,0.507-1.306c-0.612-0.614-1.226-1.229-1.837-1.846c0.645-0.636,1.289-1.271,1.934-1.906
			C204.996,77.598,205.021,76.296,205.047,74.994z"/>
		<path d="M232.141,68.268c0.119,0.297,0.051,0.539-0.207,0.729c-0.33,0.635-0.66,1.271-0.988,1.903l-0.036,0.061
			c-0.29,0.365-0.58,0.73-0.871,1.096l0.019-0.023c-0.317,0.367-0.636,0.734-0.953,1.102l0.024-0.053
			c-0.353,0.343-0.704,0.686-1.058,1.027l0.043-0.037c-0.364,0.32-0.729,0.643-1.094,0.963l0.019-0.014
			c-0.349,0.275-0.695,0.553-1.043,0.828c-0.634,0.398-1.269,0.797-1.899,1.193c-0.361-0.012-0.723-0.021-1.082-0.031l-0.023-0.023
			c0.029-0.303,0.047-0.606,0.052-0.912l0.054-0.032c0.303-0.255,0.607-0.51,0.91-0.765c0.648-0.77,1.295-1.537,1.942-2.307
			l0.024-0.023c0.762-0.645,1.524-1.286,2.286-1.93c0.255-0.328,0.509-0.658,0.763-0.986l0.01-0.018
			c0.287-0.408,0.574-0.818,0.861-1.228c-0.026-0.313,0.082-0.57,0.322-0.771c0.206-0.44,0.413-0.881,0.62-1.32
			c0.115-0.557,0.229-1.111,0.345-1.668C231.498,66.107,231.818,67.188,232.141,68.268z"/>
		<path fill="#212121" d="M214.184,82.426c-1.082-0.47-2.138-1.027-3.256-1.387c-1.307-0.421-2.668-0.669-4.006-0.992l0.176-0.146
			c2.619-0.041,5.236-0.084,7.855-0.127c0.334,0.031,0.67,0.062,1.005,0.092c-0.031,0.176,0.003,0.337,0.103,0.484
			c0.03,0.221,0.01,0.436-0.062,0.646C215.395,81.473,214.788,81.949,214.184,82.426z"/>
		<path fill="#222222" d="M232.141,68.268c-0.322-1.08-0.643-2.158-0.963-3.238c-0.15-0.313-0.164-0.633-0.041-0.959
			c0.25-0.677,0.5-1.354,0.75-2.032c0.039-0.359,0.078-0.718,0.117-1.077l-0.041,0.032l0.367,0.146l0.396-0.021
			c0.135,0.291,0.276,0.579,0.424,0.864c0.007,1.347,0.015,2.693,0.021,4.042C232.827,66.77,232.482,67.52,232.141,68.268z"/>
		<path fill="#212121" d="M207.844,82.061c1.049,0.295,2.1,0.592,3.148,0.89C209.941,82.652,208.893,82.355,207.844,82.061z"/>
		<path d="M222.963,77.898c-0.34,0.246-0.682,0.494-1.021,0.74c-0.405-0.252-0.813-0.504-1.219-0.755
			c0.077-0.301,0.162-0.6,0.254-0.896l0.015-0.01l0.452,0.01l0.453-0.036c0.365,0.012,0.729,0.024,1.093,0.036l0.022,0.023
			C222.979,77.307,222.963,77.602,222.963,77.898z"/>
		<path fill="#202020" d="M221.096,79.05c-0.701,0.296-1.404,0.593-2.107,0.888c-0.004-0.349-0.01-0.696-0.016-1.045
			c0.353-0.25,0.702-0.498,1.053-0.748C220.383,78.445,220.738,78.748,221.096,79.05z"/>
		<path fill="#4E4D4D" d="M218.025,80.178c-0.369,0.221-0.739,0.442-1.109,0.664c-0.285-0.164-0.57-0.328-0.855-0.49
			c-0.1-0.148-0.134-0.311-0.103-0.485c0.698-0.251,1.396-0.503,2.093-0.755C218.043,79.466,218.035,79.82,218.025,80.178z"/>
		<path fill="#202020" d="M214.992,83.068c0.633,0.326,1.268,0.652,1.9,0.978c-0.3,0.321-0.599,0.644-0.897,0.966
			c-0.338-0.316-0.677-0.633-1.013-0.949C214.977,83.73,214.979,83.4,214.992,83.068z"/>
		<path fill="#0B0B0B" d="M215.995,85.012c0.3-0.322,0.599-0.645,0.897-0.966c0.315,0.328,0.631,0.655,0.945,0.983
			c-0.199,0.424-0.398,0.848-0.597,1.271l-0.166-0.231l0.204,0.197c-0.28-0.1-0.569-0.135-0.866-0.104l-0.408-0.158
			C216.031,85.672,216.027,85.341,215.995,85.012z"/>
		<path fill="#222222" d="M230.943,70.9c0.33-0.635,0.66-1.27,0.99-1.903C231.604,69.632,231.273,70.268,230.943,70.9z"/>
		<path d="M221.096,79.05c-0.355-0.302-0.713-0.604-1.07-0.905l0.297-0.27l0.4,0.01c0.406,0.252,0.813,0.504,1.219,0.754
			C221.66,78.775,221.378,78.913,221.096,79.05z"/>
		<path fill="#212121" d="M211.748,83.096c0.829-0.148,1.658-0.295,2.486-0.441c0,0-0.021,0.055-0.022,0.055
			c-0.063,0.371-0.128,0.741-0.19,1.111C213.264,83.578,212.506,83.336,211.748,83.096z"/>
		<path fill="#202020" d="M216.039,87.168c-0.289,0.139-0.578,0.275-0.867,0.415c0.278-0.526,0.557-1.054,0.834-1.58l0.408,0.158
			C216.289,86.497,216.164,86.832,216.039,87.168z"/>
		<path fill="#1F1F1F" d="M179.018,107.036c0.645-0.354,1.29-0.709,1.935-1.063C180.308,106.327,179.663,106.682,179.018,107.036z"
			/>
		<path fill="#1F1F1F" d="M177,107.945c0.68-0.307,1.36-0.612,2.041-0.918C178.36,107.333,177.68,107.641,177,107.945z"/>
		<path fill="#181818" d="M228.07,74.109c0.353-0.344,0.705-0.687,1.057-1.028C228.775,73.424,228.423,73.768,228.07,74.109z"/>
		<path fill="#181818" d="M227.02,75.034c0.364-0.32,0.729-0.642,1.094-0.964C227.748,74.393,227.384,74.714,227.02,75.034z"/>
		<path fill="#181818" d="M225.994,75.85c0.348-0.275,0.695-0.553,1.043-0.828C226.689,75.297,226.342,75.572,225.994,75.85z"/>
		<path fill="#181818" d="M222.963,77.898c0-0.297,0.016-0.592,0.049-0.887c0.36,0.01,0.721,0.021,1.082,0.03
			C223.717,77.328,223.34,77.613,222.963,77.898z"/>
		<path d="M218.025,80.178c0.01-0.355,0.018-0.712,0.024-1.066c0.287-0.158,0.595-0.231,0.923-0.219
			c0.006,0.349,0.01,0.696,0.016,1.045C218.668,80.018,218.348,80.098,218.025,80.178z"/>
		<path d="M216.061,80.352c0.285,0.162,0.57,0.326,0.855,0.49l-0.439,0.189l-0.478-0.036
			C216.07,80.785,216.091,80.57,216.061,80.352z"/>
		<path fill="#0B0B0B" d="M214.021,83.82c0.063-0.371,0.127-0.741,0.19-1.112c0.325-0.019,0.585,0.103,0.78,0.36
			c-0.014,0.332-0.016,0.662-0.01,0.994C214.662,83.98,214.341,83.9,214.021,83.82z"/>
		<path fill="#222222" d="M230.037,72.057c0.291-0.365,0.581-0.729,0.871-1.096C230.618,71.326,230.328,71.691,230.037,72.057z"/>
		<path fill="#212121" d="M205.109,86.289c0.219-0.421,0.438-0.842,0.658-1.264C205.548,85.447,205.328,85.868,205.109,86.289z"/>
		<path d="M217.242,86.301c0.197-0.424,0.396-0.848,0.597-1.271C217.641,85.453,217.439,85.877,217.242,86.301z"/>
		<path d="M216.039,87.168c0.125-0.336,0.25-0.671,0.375-1.007c0.297-0.029,0.586,0.006,0.867,0.104
			C216.867,86.566,216.453,86.867,216.039,87.168z"/>
		<path fill="#212020" d="M201.131,92.335c0.303-0.44,0.604-0.883,0.906-1.323C201.734,91.452,201.434,91.895,201.131,92.335z"/>
		<path fill="#212020" d="M199.988,93.977c0.266-0.317,0.531-0.637,0.797-0.953C200.52,93.34,200.254,93.658,199.988,93.977z"/>
		<path fill="#212020" d="M197.971,95.925c0.346-0.308,0.689-0.614,1.033-0.923C198.66,95.311,198.314,95.617,197.971,95.925z"/>
		<path fill="#212020" d="M196.953,96.855c0.32-0.295,0.643-0.59,0.963-0.885C197.596,96.266,197.273,96.561,196.953,96.855z"/>
		<path fill="#212020" d="M196.033,97.656c0.27-0.234,0.539-0.469,0.809-0.703C196.572,97.188,196.303,97.422,196.033,97.656z"/>
		<path fill="#212020" d="M191.993,99.004c0.479,0.055,0.96,0.107,1.44,0.162c-0.478,0.279-0.953,0.559-1.433,0.838
			C192,99.671,191.996,99.337,191.993,99.004z"/>
		<path fill="#1F1F1F" d="M190.999,100.783c0.335-0.262,0.669-0.521,1.003-0.782C191.668,100.262,191.334,100.521,190.999,100.783z"
			/>
		<path fill="#262626" d="M189.008,102.014c0.434-0.289,0.866-0.58,1.299-0.871C189.874,101.434,189.441,101.725,189.008,102.014z"
			/>
		<path fill="#1F1F1F" d="M187.037,103.064c0.316-0.359,0.636-0.721,0.953-1.08c-0.004,0.254-0.004,0.51-0.002,0.765
			C187.671,102.854,187.354,102.96,187.037,103.064z"/>
		<path fill="#262626" d="M187.988,102.749c-0.002-0.255-0.002-0.511,0.002-0.765c0.342,0.009,0.684,0.017,1.023,0.024
			C188.672,102.256,188.33,102.502,187.988,102.749z"/>
		<path fill="#212020" d="M199.002,95.004c0.324-0.338,0.65-0.676,0.977-1.013C199.652,94.328,199.326,94.666,199.002,95.004z"/>
		<path fill="#262626" d="M185.99,103.748c0.363-0.23,0.729-0.46,1.092-0.689C186.719,103.288,186.354,103.518,185.99,103.748z"/>
		<path fill="#1F1F1F" d="M182.996,104.908c0.324-0.313,0.648-0.629,0.975-0.941c0,0.223,0.006,0.444,0.014,0.666
			C183.654,104.725,183.326,104.816,182.996,104.908z"/>
		<path fill="#262626" d="M183.984,104.633c-0.01-0.222-0.014-0.443-0.014-0.666c0.354,0.018,0.711,0.033,1.065,0.051
			C184.688,104.223,184.336,104.428,183.984,104.633z"/>
		<path fill="#1F1F1F" d="M180.98,105.959c0.44-0.275,0.881-0.553,1.321-0.829C181.861,105.406,181.422,105.684,180.98,105.959z"/>
		<path fill="#222222" d="M229.102,73.134c0.318-0.366,0.637-0.733,0.953-1.102C229.736,72.398,229.42,72.768,229.102,73.134z"/>
		<path fill="#1F1F1F" d="M174.998,108.889c0.467-0.238,0.934-0.478,1.401-0.717C175.932,108.411,175.465,108.65,174.998,108.889z"
			/>
		<path fill="#212020" d="M194.01,98.889c0.408-0.269,0.816-0.537,1.225-0.805C194.826,98.352,194.418,98.62,194.01,98.889z"/>
		<path d="M211.303,56.137c-0.42-0.299-0.842-0.598-1.263-0.897c1.948-0.767,3.897-1.534,5.846-2.301
			c1.774-0.018,3.55-0.035,5.323-0.053c0.586,0.066,1.172,0.133,1.758,0.199c-2.336,0.569-4.671,1.139-7.006,1.709
			c-0.678,0.325-1.355,0.65-2.031,0.976c-0.311,0.091-0.619,0.183-0.93,0.274C212.436,56.075,211.869,56.105,211.303,56.137z"/>
		<path fill="#272727" d="M215.961,54.794c2.335-0.57,4.67-1.14,7.006-1.709c1.758,0.588,3.516,1.176,5.273,1.764
			c-0.4,0.355-0.799,0.712-1.199,1.068c-0.354,0.054-0.706,0.106-1.061,0.159C222.641,55.648,219.301,55.221,215.961,54.794z"/>
		<path fill="#343434" d="M189.225,30.037c0.283-0.729,0.566-1.458,0.851-2.188c0.01,2.765,0.019,5.528,0.026,8.293
			c-0.326-0.369-0.651-0.737-0.979-1.105c-0.09-0.354-0.18-0.708-0.27-1.062c-0.014-1.336-0.024-2.671-0.039-4.006L189.225,30.037z"
			/>
		<path d="M227.041,55.917c0.4-0.356,0.799-0.713,1.199-1.068c0.307-0.032,0.551,0.079,0.729,0.332
			c0.346,0.271,0.692,0.543,1.039,0.814l-0.004-0.002c0.305,0.351,0.607,0.701,0.91,1.052l0.025,0.048
			c0.014,0.632,0.025,1.264,0.039,1.895l0.01-0.009c-0.239-0.068-0.473-0.053-0.7,0.046c-0.761-0.679-1.521-1.356-2.282-2.035
			c-0.361-0.243-0.725-0.487-1.086-0.729L227.041,55.917z"/>
		<path fill="#272727" d="M221.209,52.886c-1.773,0.018-3.549,0.035-5.322,0.053C217.66,52.921,219.436,52.903,221.209,52.886z"/>
		<path d="M189.122,35.037c0.327,0.368,0.653,0.736,0.979,1.105c-0.066,0.607-0.135,1.216-0.201,1.824
			c-0.301,0.055-0.604,0.063-0.906,0.024l0.02,0.019c-0.027-0.699-0.054-1.398-0.08-2.098
			C188.906,35.601,188.971,35.31,189.122,35.037z"/>
		<path fill="#3E3D3D" d="M188.994,37.991c0.303,0.039,0.605,0.03,0.906-0.024c-0.252,0.748-0.504,1.495-0.756,2.244
			C189.096,39.471,189.045,38.731,188.994,37.991z"/>
		<path fill="#0C0C0C" d="M231.813,59.04c0.182,0.253,0.283,0.535,0.308,0.845c-0.054,0.369-0.104,0.738-0.156,1.107l0.041-0.032
			c-0.356,0.013-0.715,0.026-1.071,0.039c0.061-0.32,0.078-0.643,0.051-0.968c0.002-0.351,0.004-0.701,0.006-1.053l-0.01,0.009
			l0.414,0.067L231.813,59.04z"/>
		<path fill="#343434" d="M231.813,59.04l-0.42,0.015l-0.414-0.067c-0.013-0.631-0.024-1.263-0.039-1.895
			C231.23,57.742,231.521,58.391,231.813,59.04z"/>
		<path fill="#161616" d="M188.159,42.358c0.229-0.45,0.46-0.901,0.69-1.352C188.619,41.457,188.389,41.908,188.159,42.358z"/>
		<path fill="#6A6A6A" d="M231.963,60.992c0.053-0.369,0.104-0.738,0.156-1.107c0.201,0.411,0.404,0.821,0.605,1.231l-0.396,0.021
			L231.963,60.992z"/>
		<path fill="#343434" d="M230.914,57.045c-0.303-0.351-0.605-0.701-0.91-1.052C230.309,56.344,230.611,56.694,230.914,57.045z"/>
		<path fill="#343434" d="M230.008,55.995c-0.347-0.271-0.693-0.543-1.039-0.814C229.314,55.452,229.661,55.724,230.008,55.995z"/>
		<path fill="none" d="M204.367,83.958c-1.469,2.312-2.938,4.622-4.406,6.933c-0.3,0.379-0.6,0.756-0.898,1.135l-0.035,0.041
			c-0.275,0.307-0.553,0.611-0.828,0.916c-0.737,0.715-1.475,1.43-2.211,2.145c-0.358,0.275-0.719,0.551-1.076,0.825l0.05-0.034
			c-0.438,0.314-0.877,0.631-1.313,0.945c-0.334-0.055-0.558,0.076-0.672,0.396c-0.314,0.253-0.629,0.505-0.943,0.757l-0.02,0.01
			c-0.412,0.289-0.826,0.578-1.24,0.867c-0.326-0.067-0.584,0.037-0.771,0.313c-0.395,0.238-0.787,0.479-1.182,0.718
			c-0.334-0.079-0.604,0.019-0.812,0.295c-0.385,0.238-0.771,0.478-1.155,0.716c-0.353-0.054-0.635,0.064-0.845,0.354
			c-0.348,0.231-0.696,0.466-1.045,0.698c-0.319,0.119-0.641,0.238-0.961,0.355c-0.38,0.198-0.76,0.396-1.142,0.596l-0.482-0.004
			l-0.381,0.297c-0.434,0.211-0.868,0.422-1.303,0.633l-0.392-0.027L180,104.085c-0.646,0.315-1.292,0.633-1.938,0.949l-0.039,0.017
			c-0.415,0.283-0.829,0.566-1.243,0.85c-0.33-0.041-0.59,0.074-0.781,0.348c-0.368,0.236-0.735,0.475-1.103,0.71
			c-0.301,0.114-0.602,0.229-0.902,0.345c-0.385,0.209-0.77,0.418-1.155,0.629c-6.869,0.672-13.727,1.566-20.612,1.898
			c-2.415,0.115-4.896-1.146-7.347-1.779c0.388-0.385,0.775-0.77,1.162-1.152c2.734,0.801,5.428,1.27,7.804-0.931
			c0.059-0.323,0.117-0.646,0.176-0.969c-0.075-0.337-0.15-0.675-0.225-1.013c-0.262-0.271-0.524-0.543-0.786-0.813l-0.308-0.308
			l-0.434,0.033c-0.416-0.211-0.832-0.422-1.248-0.635c-2.401-0.813-4.803-1.629-7.547-2.561c0.801-4.143,1.721-8.903,2.642-13.665
			c0.961-2.781,1.763-5.636,2.983-8.298c0.354-0.772,1.907-0.995,2.91-1.471c1.364,0.502,2.728,1.004,4.091,1.508
			c2.961,0.033,5.923,0.064,8.884,0.099c1.049-0.547,2.098-1.095,3.146-1.642c0.29-0.162,0.579-0.323,0.869-0.485
			c0.338-0.241,0.677-0.481,1.015-0.724c0.676-0.057,1.353-0.111,2.029-0.166c0.612,1.203,1.224,2.406,1.836,3.608
			c0.106,0.833,0.212,1.666,0.318,2.499c0.481,0.711,0.962,1.422,1.443,2.131c0.392,0.353,0.783,0.703,1.174,1.055
			c0.233,0.334,0.466,0.668,0.7,1.004c0.465,0.371,0.93,0.742,1.395,1.115c0.348,0.252,0.696,0.502,1.044,0.754
			c1.021,0.303,2.045,0.604,3.066,0.906c2.662-0.012,5.323-0.022,7.985-0.035c0.328-0.006,0.658-0.015,0.986-0.021
			c0.321-0.003,0.643-0.005,0.964-0.008c0.682-0.239,1.361-0.479,2.043-0.72c0.325-0.088,0.648-0.176,0.975-0.266
			c0.367-0.184,0.734-0.367,1.103-0.552c0.305-0.197,0.608-0.394,0.913-0.591c0.346-0.577,0.691-1.155,1.035-1.733
			c0.383-0.673,0.766-1.347,1.146-2.021c0.62-0.334,1.239-0.666,1.859-1c0.336-0.061,0.672-0.119,1.008-0.18
			c0.611,0.614,1.225,1.229,1.837,1.844C204.705,83.088,204.537,83.523,204.367,83.958z"/>
		<path fill="none" d="M205.047,74.994c-0.025,1.302-0.051,2.604-0.076,3.906c-1.621-0.012-3.242-0.021-4.863-0.031l-0.023,0.064
			c-0.334-0.322-0.669-0.645-1.003-0.968c-0.683-0.354-1.363-0.709-2.045-1.063c-0.683-0.271-1.363-0.541-2.045-0.813
			c-0.322-0.074-0.646-0.15-0.968-0.227c-0.356-0.223-0.715-0.444-1.071-0.666c-0.326-0.024-0.652-0.049-0.979-0.071
			c-0.318-0.015-0.64-0.028-0.959-0.042c-1.89-0.432-3.779-0.859-5.671-1.291c-1.133-0.215-2.266-0.432-3.397-0.646
			c-2.383,0.184-4.767,0.367-7.15,0.549c-0.91-0.021-1.82-0.045-2.73-0.067c-0.318-0.218-0.636-0.435-0.954-0.651
			c-0.129-0.652-0.258-1.305-0.388-1.957c-0.576-0.666-1.151-1.334-1.727-2c-0.657-0.358-1.314-0.717-1.972-1.074
			c-0.817-0.321-1.635-0.643-2.452-0.965c-0.831-0.443-1.662-0.889-2.493-1.332c-1.364-0.531-2.728-1.063-4.092-1.596
			c-0.325-0.029-0.649-0.06-0.974-0.09c-1.608-0.793-1.955-1.908-0.951-3.446c1.9-2.911,3.743-5.86,5.657-8.763
			c3.061-4.64,8.079-4.257,12.574-4.331c7.02-0.115,13.811,1.4,20.188,4.594c3.322,1.664,5.686,4.05,6.66,7.602
			C202.539,64.719,203.754,69.866,205.047,74.994z"/>
		<path fill="#FDF0F0" d="M218.973,78.893c-0.326-0.014-0.635,0.061-0.922,0.219c-0.697,0.252-1.395,0.504-2.093,0.755
			c-0.335-0.03-0.671-0.062-1.005-0.091c-2.322-0.26-4.645-0.519-6.967-0.775c0.007-2.928,0.051-5.855-0.028-8.782
			c-0.011-0.383-0.655-0.749-1.005-1.122c-1.479-2.326-1.379-4.349,1.141-5.901c0.166,0.057,0.331,0.114,0.496,0.172
			c-0.133-0.095-0.264-0.188-0.396-0.282c-0.008-0.238-0.029-0.477-0.063-0.713c0.359-0.013,0.641-0.169,0.84-0.467
			c0.694-0.445,1.391-0.89,2.086-1.334c0.305-0.212,0.607-0.424,0.911-0.636c1.076-0.59,2.151-1.18,3.228-1.77l0.412-0.016
			l0.398,0.102c2.996-0.009,5.992-0.017,8.988-0.025c0.669,0.207,1.339,0.415,2.008,0.623c0.331,0.086,0.661,0.173,0.991,0.26
			l-0.097-0.112c0.375,0.326,0.75,0.651,1.127,0.978c0.011,0.331,0.021,0.662,0.031,0.993c0.346,0.601,0.691,1.201,1.037,1.802
			c0.27,0.189,0.566,0.31,0.893,0.36c-0.088,0.337-0.036,0.649,0.152,0.942c-0.123,0.324-0.109,0.646,0.041,0.959
			c-0.113,0.556-0.229,1.111-0.344,1.666c-0.207,0.439-0.414,0.881-0.62,1.32c-0.241,0.201-0.35,0.459-0.323,0.771
			c-0.287,0.408-0.574,0.818-0.86,1.227l-0.011,0.019c-0.254,0.329-0.508,0.657-0.762,0.985c-0.762,0.645-1.523,1.287-2.287,1.931
			c-0.152-0.146-0.305-0.29-0.457-0.437c0.146,0.153,0.289,0.307,0.434,0.461c-0.647,0.769-1.295,1.537-1.942,2.305
			c-0.303,0.256-0.606,0.511-0.909,0.766l-0.055,0.032c-0.382,0.293-0.764,0.585-1.145,0.877l-0.453,0.037l-0.452-0.011
			c-0.058-0.125-0.095-0.269-0.181-0.367c-0.053-0.063-0.183-0.061-0.276-0.088c0.147,0.154,0.295,0.311,0.442,0.465
			c-0.092,0.297-0.177,0.596-0.254,0.896l-0.399-0.011l-0.298,0.271C219.675,78.395,219.324,78.643,218.973,78.893z"/>
		<path fill="#F8ECEC" d="M166.321,45.764c0.192-1.262,0.385-2.522,0.577-3.784c0.197-0.279,0.301-0.591,0.311-0.933
			c0.24-0.356,0.481-0.713,0.722-1.07c0.28-0.223,0.418-0.514,0.417-0.871l0.355,0.039l0.355-0.043
			c0.154,0.133,0.308,0.267,0.461,0.399c-0.142-0.152-0.285-0.304-0.427-0.456c0.013-0.333,0.026-0.667,0.039-1.001
			c0.614-0.698,1.229-1.396,1.842-2.095c0.333-0.347,0.665-0.692,0.997-1.038c0.334-0.331,0.668-0.662,1.002-0.994
			c0.654-0.41,1.309-0.82,1.964-1.231c0.211,0.097,0.433,0.146,0.665,0.148c0.434-0.366,0.867-0.732,1.3-1.099
			c-0.003-0.245,0.035-0.484,0.117-0.717c0.331-0.33,0.662-0.66,0.993-0.991c1.662-0.381,3.324-0.762,4.986-1.144
			c0.662,0.053,1.325,0.104,1.987,0.156c0.338,0.346,0.675,0.69,1.013,1.036c-0.021,0.319-0.058,0.637-0.117,0.95
			c-0.062,1.333-0.121,2.666-0.185,3.998l0.229,0.117l0.195-0.164c-0.17,0.267-0.247,0.558-0.233,0.873
			c-0.627,1.051-1.253,2.102-1.88,3.153c-0.694,1.332-1.388,2.665-2.082,3.998c-0.307,0.623-0.614,1.245-0.922,1.868
			c-4.337,0.023-8.676,0.046-13.014,0.068c-0.324,0.041-0.649,0.082-0.973,0.123C166.784,45.295,166.552,45.529,166.321,45.764z
			 M170.708,43.32c0,0.139,0,0.277,0,0.417c0.527,0,1.055,0,1.582,0c0-0.14,0-0.278,0-0.417
			C171.763,43.32,171.236,43.32,170.708,43.32z"/>
		<path fill="#F9F9F9" d="M151.902,75.221c-2.946-3.559,1-5.916,1.583-8.855c0.388-1.957,1.981-1.848,3.521-1.521
			c0.323,0.096,0.647,0.189,0.971,0.285c1.354,0.566,2.709,1.135,4.063,1.7c0.259,0.188,0.548,0.269,0.867,0.237
			c0.633,0.473,1.267,0.942,1.924,1.433c-0.379,0.416-0.794,0.871-1.209,1.326c-0.217,0.37-0.435,0.739-0.653,1.11
			c-0.653,1.891-1.306,3.78-2.025,5.86c-0.84,0-1.77,0-2.7,0C156.129,76.271,154.015,75.745,151.902,75.221z"/>
		<path fill="#E3E3E3" d="M147.73,66.627c0.404-0.604,0.807-1.208,1.211-1.813c-0.058,0.197-0.016,0.371,0.125,0.521
			c0.117,0.306,0.328,0.509,0.634,0.612l0.265,0.142l0.298-0.03c-0.533,1.621-1.066,3.239-1.599,4.858
			c-0.458,0.004-0.917,0.007-1.376,0.011c-0.022-0.968-0.044-1.937-0.066-2.904C147.392,67.559,147.561,67.094,147.73,66.627z"/>
		<path fill="none" d="M206.953,69.094c0.35,0.375,0.994,0.74,1.005,1.123c0.079,2.926,0.035,5.854,0.028,8.782
			c-0.271-0.002-0.545-0.003-0.816-0.002c-0.124-0.327-0.248-0.653-0.372-0.979c0.015-0.346,0.028-0.689,0.042-1.035
			C206.877,74.354,206.915,71.723,206.953,69.094z"/>
		<path fill="#535252" d="M151.902,75.221c2.113,0.524,4.227,1.051,6.341,1.576c-0.714,0.326-1.429,0.653-2.143,0.98
			c-1.364-0.504-2.728-1.006-4.091-1.508C151.973,75.92,151.937,75.57,151.902,75.221z"/>
		<path fill="#B2B1B1" d="M208.014,61.27c-0.805,0.16-1.607,0.32-2.412,0.479c-0.145-0.291-0.289-0.582-0.436-0.873
			c0.891-0.651,1.781-1.302,2.672-1.952c0.203,0.037,0.393,0.11,0.568,0.219c0.191,0.281,0.385,0.563,0.578,0.844
			c-0.069,0.247-0.082,0.496-0.037,0.749C208.637,60.914,208.324,61.092,208.014,61.27z"/>
		<path fill="#E2E1E1" d="M189.122,35.037c-0.151,0.272-0.216,0.563-0.188,0.875c-0.257,0.714-0.514,1.428-0.771,2.142
			c-0.13,0.282-0.195,0.579-0.197,0.89c-0.214,0.1-0.438,0.146-0.675,0.139c-0.348-0.018-0.695-0.035-1.043-0.052
			c0.16-0.714,0.318-1.428,0.477-2.141c0.154-0.618,0.31-1.236,0.463-1.854c0.334-0.354,0.666-0.709,1-1.064l0.332,0.014
			l0.334-0.009C188.941,34.329,189.032,34.684,189.122,35.037z"/>
		<path fill="#F8ECEC" d="M185.799,41.987c-0.936,0.929-1.869,1.857-2.806,2.787c-0.034-0.313-0.048-0.626-0.039-0.94
			c0.63-0.626,1.261-1.252,1.89-1.877l0.479-0.014L185.799,41.987z"/>
		<path fill="none" d="M210.041,57.301c0.305-0.106,0.607-0.213,0.912-0.319c0.347,0.242,0.693,0.485,1.039,0.729
			c-0.336,0.422-0.672,0.844-1.008,1.266c-0.262,0.05-0.522,0.105-0.783,0.165c-0.404-0.052-0.809-0.103-1.213-0.153l0.025,0.024
			c0.064-0.3,0.079-0.603,0.045-0.907l0.059-0.047C209.425,57.805,209.732,57.553,210.041,57.301z"/>
		<path fill="none" d="M211.992,57.71c-0.346-0.243-0.692-0.486-1.039-0.729c0.131-0.276,0.248-0.558,0.35-0.845
			c0.566-0.031,1.133-0.062,1.697-0.093c0,0.306-0.004,0.61-0.011,0.916C212.656,57.21,212.324,57.46,211.992,57.71z"/>
		<path fill="#ABABAB" d="M148.941,64.814c0.019-0.264,0.069-0.521,0.151-0.771c1.866-0.186,2.549,0.314,1.171,2.016l-0.298,0.029
			l-0.265-0.141c-0.211-0.204-0.423-0.408-0.634-0.613C148.926,65.186,148.884,65.012,148.941,64.814z"/>
		<path fill="#F9F7F7" d="M182.954,43.834c-0.009,0.314,0.005,0.628,0.039,0.94c-0.663,0.032-1.327,0.063-1.991,0.096
			c0.309-0.623,0.615-1.245,0.922-1.868C182.268,43.279,182.611,43.557,182.954,43.834z"/>
		<path fill="#3E3D3D" d="M188.163,38.054c0.257-0.714,0.514-1.428,0.771-2.142c0.026,0.699,0.053,1.398,0.08,2.098l-0.428-0.016
			L188.163,38.054z"/>
		<path fill="#B9B9B9" d="M147.289,70.928c0.458-0.004,0.917-0.007,1.376-0.011c-0.568,0.381-1.137,0.763-1.705,1.144
			C147.069,71.684,147.179,71.305,147.289,70.928z"/>
		<path fill="#DFDFE0" d="M187.352,39.931c-0.347,0.384-0.69,0.768-1.037,1.152c-0.379-0.02-0.758-0.039-1.135-0.059
			c-0.104-0.275-0.117-0.556-0.039-0.841c0.281-0.049,0.559-0.112,0.832-0.19c0.286-0.012,0.571,0.004,0.854,0.049l0.284,0.052
			L187.352,39.931z"/>
		<path fill="none" d="M164.098,43.173c0.001,0.547,0.003,1.094,0.005,1.641C164.102,44.267,164.1,43.72,164.098,43.173z"/>
		<path fill="#3E3D3D" d="M187.293,39.082c0.234,0.008,0.459-0.039,0.673-0.139c-0.204,0.329-0.409,0.658-0.614,0.987l-0.24,0.163
			l-0.283-0.052C186.982,39.722,187.139,39.402,187.293,39.082z"/>
		<path fill="none" d="M185.18,41.024c0.377,0.02,0.756,0.039,1.135,0.059c-0.172,0.301-0.344,0.603-0.516,0.904l-0.477-0.044
			l-0.479,0.014C184.956,41.646,185.066,41.335,185.18,41.024z"/>
		<path fill="none" d="M167.015,45.062c0.324-0.041,0.649-0.082,0.973-0.123C167.664,44.979,167.339,45.021,167.015,45.062z"/>
		<path d="M208.014,61.27c0.312-0.178,0.623-0.355,0.935-0.533c0.008,0.39,0.015,0.778,0.021,1.167
			c-0.199,0.298-0.479,0.454-0.839,0.467C208.091,62.003,208.052,61.637,208.014,61.27z"/>
		<path d="M157.976,65.129c-0.324-0.096-0.647-0.189-0.971-0.285c0.002-0.293,0.004-0.587,0.007-0.88
			c0.325,0.03,0.649,0.06,0.974,0.091C157.982,64.412,157.979,64.771,157.976,65.129z"/>
		<path fill="#CFCECE" d="M209.061,58.104c0.033,0.305,0.02,0.607-0.045,0.907c-0.199,0.065-0.402,0.109-0.608,0.131
			c-0.177-0.108-0.365-0.182-0.568-0.219C208.246,58.651,208.652,58.378,209.061,58.104z"/>
		<path fill="#CFCECE" d="M210.041,57.301c-0.309,0.252-0.616,0.504-0.924,0.757C209.425,57.805,209.732,57.553,210.041,57.301z"/>
		<path fill="#191819" d="M153.845,105.967c-2.376,2.199-5.07,1.73-7.804,0.93c-0.028-0.266-0.072-0.527-0.131-0.789l0.229-0.41
			c0.269-0.156,0.538-0.313,0.806-0.469c1.767-0.082,3.534-0.164,5.3-0.246c0.29-0.008,0.579,0.006,0.867,0.041
			C153.356,105.338,153.601,105.652,153.845,105.967z"/>
		<path fill="#C2BFBF" d="M152.246,104.98c-1.767,0.082-3.533,0.164-5.3,0.246c-0.252-0.235-0.55-0.363-0.896-0.379
			c-0.172-0.287-0.344-0.574-0.516-0.863l0.357,0.035l0.354-0.055c0.243-0.252,0.485-0.503,0.728-0.755l0.02-0.462
			C148.744,103.493,150.495,104.236,152.246,104.98z"/>
		<path fill="none" d="M145.911,106.107c0.059,0.261,0.103,0.522,0.131,0.789c-0.387,0.383-0.774,0.769-1.162,1.152
			c-0.319-0.355-0.639-0.71-0.959-1.064l0.192,0.172l0.22-0.133c0.223-0.346,0.447-0.689,0.67-1.033
			C145.304,106.042,145.606,106.081,145.911,106.107z"/>
		<path fill="#6A6969" d="M145.534,103.984c-0.058-0.508-0.116-1.019-0.173-1.527c0.544,0.098,1.088,0.193,1.632,0.292l-0.02,0.462
			c-0.243,0.252-0.485,0.503-0.728,0.755l-0.354,0.056L145.534,103.984z"/>
		<path fill="#6A6969" d="M143.92,106.984c-0.266-0.78-0.532-1.563-0.797-2.344c0.292,0.11,0.583,0.223,0.875,0.334
			c0.112,0.683,0.223,1.364,0.335,2.049l-0.22,0.133L143.92,106.984z"/>
		<path fill="#1F1F1F" d="M178.062,105.034c0.646-0.316,1.292-0.634,1.938-0.949C179.354,104.4,178.708,104.718,178.062,105.034z"/>
		<path fill="none" d="M144.333,107.023c-0.112-0.685-0.223-1.366-0.335-2.049c0.335,0.338,0.67,0.676,1.005,1.016
			C144.78,106.334,144.556,106.68,144.333,107.023z"/>
		<path fill="#212020" d="M190.771,98.891c0.414-0.289,0.828-0.576,1.24-0.865c-0.01,0.326-0.015,0.652-0.015,0.979
			C191.59,98.966,191.182,98.928,190.771,98.891z"/>
		<path fill="#1F1F1F" d="M188.818,99.921c0.395-0.239,0.787-0.479,1.182-0.718C189.605,99.441,189.213,99.682,188.818,99.921z"/>
		<path fill="#262626" d="M186.854,100.932c0.385-0.238,0.771-0.478,1.154-0.716C187.623,100.454,187.238,100.691,186.854,100.932z"
			/>
		<path fill="#262626" d="M184.963,101.984c0.348-0.233,0.697-0.467,1.045-0.699C185.66,101.518,185.311,101.751,184.963,101.984z"
			/>
		<path fill="#101010" d="M151.021,102.264c0.416,0.213,0.832,0.424,1.248,0.635C151.853,102.688,151.437,102.477,151.021,102.264z"
			/>
		<path fill="#262626" d="M182.861,102.936c0.381-0.199,0.761-0.396,1.141-0.596C183.622,102.538,183.242,102.736,182.861,102.936z"
			/>
		<path fill="#101010" d="M153.01,103.172c0.262,0.271,0.524,0.543,0.786,0.814C153.534,103.715,153.272,103.443,153.01,103.172z"/>
		<path fill="#1F1F1F" d="M180.695,103.861c0.434-0.211,0.867-0.422,1.302-0.633C181.563,103.439,181.129,103.65,180.695,103.861z"
			/>
		<path d="M146.05,104.848c0.345,0.018,0.644,0.145,0.896,0.381c-0.269,0.155-0.538,0.313-0.806,0.469
			C146.076,105.417,146.046,105.134,146.05,104.848z"/>
		<path d="M153.845,105.967c-0.244-0.314-0.489-0.629-0.733-0.943c0.303-0.008,0.606-0.018,0.909-0.024
			C153.962,105.32,153.904,105.645,153.845,105.967z"/>
		<path fill="#1F1F1F" d="M176.78,105.9c0.415-0.283,0.829-0.566,1.243-0.851C177.609,105.334,177.195,105.617,176.78,105.9z"/>
		<path fill="#1F1F1F" d="M174.896,106.957c0.368-0.236,0.735-0.475,1.103-0.71C175.631,106.482,175.264,106.721,174.896,106.957z"
			/>
		<path fill="#1F1F1F" d="M172.839,107.93c0.385-0.209,0.77-0.418,1.155-0.629C173.609,107.512,173.224,107.721,172.839,107.93z"/>
		<path fill="#E7E6E6" d="M178.054,26.238c0.305-0.186,0.609-0.371,0.914-0.557c2.332,0.493,4.663,0.987,6.995,1.48
			c0.047,0.236,0.078,0.475,0.092,0.716c-0.35,0.038-0.701,0.076-1.051,0.114c0,0,0.111-0.129,0.111-0.128
			c-0.723-0.221-1.444-0.441-2.166-0.662c-0.635-0.005-1.27-0.011-1.904-0.016c-0.594-0.009-1.188-0.017-1.783-0.025
			C178.859,26.854,178.457,26.546,178.054,26.238z"/>
		<path fill="#D0D0D0" d="M187.936,28.194c0.431,0.614,0.859,1.229,1.289,1.843l-0.41-0.067c-0.267,0.049-0.535,0.059-0.806,0.029
			c-0.259-0.045-0.521-0.057-0.782-0.038c-0.039-0.34-0.078-0.68-0.115-1.02C187.385,28.692,187.66,28.443,187.936,28.194z"/>
		<path fill="#F6F6F6" d="M186.055,27.878c-0.014-0.241-0.045-0.479-0.092-0.716c0.332,0.29,0.663,0.579,0.994,0.869l0.09-0.068
			c-0.367,0.036-0.734,0.073-1.104,0.11L186.055,27.878z"/>
		<path fill="none" d="M187.936,28.194c-0.274,0.249-0.551,0.498-0.824,0.747l-0.155,0.095c0.03-0.357,0.062-0.716,0.092-1.073
			l-0.09,0.068C187.283,28.086,187.609,28.141,187.936,28.194z"/>
		<path fill="#B9B9B9" d="M147.73,66.627c-0.169,0.467-0.339,0.932-0.508,1.396C147.392,67.559,147.561,67.094,147.73,66.627z"/>
		<path fill="none" d="M174.194,28.119c0.272-0.029,0.545-0.049,0.819-0.058c-0.151,0.178-0.134,0.337,0.054,0.477
			c0.021,0.29,0.06,0.577,0.117,0.862c-0.022,0.217-0.072,0.427-0.15,0.629c-0.308,0.347-0.617,0.692-0.925,1.039l-0.046,0.046
			c-0.324,0.31-0.649,0.618-0.973,0.927c-0.305,0.338-0.609,0.676-0.913,1.014c-0.335,0.339-0.67,0.678-1.005,1.017l-0.417-0.143
			c-0.323,0.288-0.646,0.576-0.967,0.865c-0.26,0.406-0.521,0.811-0.781,1.215l0.002-0.004c-0.331-0.009-0.662-0.005-0.992,0.01
			l-0.169-0.146c0.013-0.302,0.008-0.603-0.014-0.904c0.323-0.683,0.646-1.366,0.969-2.049l0.297,0.122
			c0.302-0.343,0.604-0.687,0.907-1.029l0.003-0.005c0.336-0.323,0.672-0.647,1.009-0.972l0.017-0.015
			c0.327-0.28,0.653-0.56,0.98-0.839C172.741,29.492,173.467,28.806,174.194,28.119z"/>
		<path fill="#E1E0E1" d="M172.014,30.179c-0.327,0.279-0.653,0.559-0.98,0.839C171.361,30.737,171.688,30.458,172.014,30.179z"/>
		<path fill="#E1E0E1" d="M171.017,31.032c-0.336,0.324-0.672,0.648-1.009,0.972C170.345,31.681,170.681,31.356,171.017,31.032z"/>
		<path fill="#E1E0E1" d="M170.005,32.009c-0.303,0.343-0.605,0.687-0.907,1.029c-0.021-0.343-0.041-0.687-0.062-1.029
			C169.359,32.112,169.682,32.112,170.005,32.009z"/>
		<path fill="none" d="M164.915,40.977c0.18-0.262,0.228-0.545,0.144-0.851c0.333-0.025,0.667-0.051,1.001-0.076l-0.113-0.108
			c0.068,0.362,0.136,0.725,0.204,1.087c-0.043,0.325-0.086,0.651-0.129,0.977C165.652,41.662,165.284,41.319,164.915,40.977z"/>
		<path fill="#151515" d="M166.021,42.005c0.043-0.325,0.086-0.651,0.129-0.977c0.353,0.006,0.706,0.012,1.059,0.019
			c-0.011,0.342-0.115,0.653-0.312,0.933C166.605,41.987,166.313,41.995,166.021,42.005z"/>
		<path fill="none" d="M167.215,38.227c0.21-0.785,0.421-1.571,0.631-2.357c0,0,0.169,0.146,0.168,0.146
			c0.024,0.384,0.048,0.769,0.073,1.153c-0.049,0.284-0.053,0.57-0.011,0.856c-0.317,0.03-0.635,0.06-0.952,0.09L167.215,38.227z"/>
		<path fill="none" d="M166.06,40.05c0.027-0.662,0.054-1.324,0.081-1.987c0.358,0.054,0.715,0.108,1.074,0.163
			c0.001,0.001-0.09-0.111-0.091-0.112c0.12,0.288,0.181,0.59,0.18,0.903c-0.125,0.323-0.25,0.646-0.375,0.969
			c-0.33,0.046-0.657,0.031-0.982-0.044L166.06,40.05z"/>
		<path fill="#D1CFCF" d="M178.054,26.238c0.402,0.308,0.805,0.615,1.207,0.922c-0.121,0.255-0.253,0.503-0.396,0.745
			c-0.634,0.359-1.268,0.719-1.901,1.079c-0.35,0.201-0.7,0.402-1.05,0.604c0.235-0.215,0.272-0.459,0.112-0.734
			c-0.319-0.104-0.639-0.21-0.958-0.315c-0.188-0.14-0.206-0.299-0.054-0.477c0.156-0.283,0.293-0.575,0.41-0.876
			c0.27,0.062,0.459-0.035,0.568-0.289c0.367-0.2,0.734-0.399,1.101-0.6C177.409,26.209,177.729,26.189,178.054,26.238z"/>
		<path fill="#212121" d="M200.105,78.869c1.621,0.011,3.244,0.021,4.865,0.031c-0.646,0.636-1.289,1.271-1.935,1.906
			c-0.336,0.062-0.673,0.121-1.009,0.18c-0.625-0.238-1.25-0.479-1.873-0.717C200.139,79.803,200.123,79.336,200.105,78.869z"/>
		<path fill="#212121" d="M206.798,78.018c0.124,0.326,0.248,0.652,0.372,0.979c-0.148,0.291-0.172,0.593-0.072,0.903l-0.176,0.146
			C206.881,79.37,206.84,78.693,206.798,78.018z"/>
		<path fill="#212121" d="M204.367,83.958c0.17-0.435,0.338-0.87,0.507-1.306C204.705,83.088,204.537,83.523,204.367,83.958z"/>
		<path fill="#212020" d="M199.063,92.023c0.299-0.377,0.6-0.756,0.898-1.133C199.661,91.27,199.361,91.646,199.063,92.023z"/>
		<path fill="#212020" d="M198.198,92.98c0.276-0.305,0.553-0.608,0.829-0.914C198.751,92.372,198.475,92.678,198.198,92.98z"/>
		<path fill="#212020" d="M194.911,95.951c0.358-0.275,0.718-0.551,1.077-0.825C195.629,95.4,195.27,95.676,194.911,95.951z"/>
		<path fill="#212020" d="M193.646,96.863c0.438-0.315,0.875-0.631,1.313-0.946C194.521,96.232,194.084,96.548,193.646,96.863z"/>
		<path fill="#212020" d="M192.031,98.014c0.314-0.252,0.629-0.504,0.943-0.756C192.66,97.51,192.346,97.762,192.031,98.014z"/>
		<path fill="#222222" d="M229.029,70.016c0.287-0.408,0.574-0.818,0.861-1.228C229.604,69.197,229.316,69.605,229.029,70.016z"/>
		<path fill="#222222" d="M230.214,68.018c0.206-0.44,0.413-0.881,0.62-1.32C230.627,67.137,230.42,67.576,230.214,68.018z"/>
		<path fill="#181818" d="M223.094,76.043c0.303-0.255,0.607-0.51,0.91-0.766C223.701,75.533,223.396,75.788,223.094,76.043z"/>
		<path fill="#181818" d="M221.896,76.952c0.381-0.292,0.762-0.584,1.144-0.877c-0.005,0.306-0.021,0.608-0.052,0.913
			C222.625,76.977,222.262,76.964,221.896,76.952z"/>
		<path fill="#222222" d="M228.258,71.02c0.254-0.328,0.508-0.658,0.762-0.986C228.766,70.361,228.512,70.689,228.258,71.02z"/>
		<path fill="#FBFAFA" d="M207.098,79.9c-0.1-0.312-0.076-0.612,0.072-0.903c0.271-0.001,0.545,0,0.816,0.002
			c2.322,0.258,4.645,0.517,6.967,0.774C212.334,79.816,209.717,79.859,207.098,79.9z"/>
		<path fill="#6A6A6A" d="M230.092,62.768c-0.346-0.601-0.691-1.201-1.037-1.802c0.342,0.011,0.684,0.021,1.024,0.032l0.427-0.024
			l0.426,0.025c0.357-0.013,0.715-0.026,1.072-0.039c-0.039,0.359-0.078,0.718-0.117,1.077c-0.267-0.013-0.533-0.028-0.8-0.047
			C230.755,62.249,230.424,62.509,230.092,62.768z"/>
		<path fill="#808080" d="M231.087,61.99c0.267,0.019,0.533,0.034,0.8,0.047c-0.25,0.678-0.5,1.355-0.75,2.033
			c-0.188-0.293-0.24-0.605-0.152-0.942C231.02,62.749,231.053,62.369,231.087,61.99z"/>
		<path fill="#EBEBEB" d="M215.961,54.794c3.34,0.427,6.68,0.854,10.021,1.282c0.027,0.256,0.039,0.512,0.033,0.77
			c-0.313,0.126-0.633,0.159-0.964,0.099c-1.044-0.247-2.089-0.495-3.134-0.743c-0.97-0.002-1.939-0.004-2.91-0.006
			c-1.349,0.258-2.697,0.516-4.047,0.773c-0.339-0.01-0.658,0.064-0.959,0.222l0.168-0.214l-0.128-0.239
			c-0.086-0.317-0.124-0.64-0.112-0.968C214.605,55.444,215.283,55.119,215.961,54.794z"/>
		<path fill="none" d="M213.93,55.77c-0.012,0.328,0.026,0.65,0.112,0.968c-0.351,0.074-0.702,0.148-1.053,0.223
			c0.007-0.306,0.011-0.61,0.011-0.916C213.311,55.952,213.619,55.86,213.93,55.77z"/>
		<path fill="none" d="M226.016,56.846c0.006-0.258-0.006-0.514-0.033-0.77c0.354-0.053,0.705-0.105,1.06-0.159l-0.121,0.342
			c0.021,0.235,0.052,0.471,0.093,0.704C226.68,56.924,226.348,56.885,226.016,56.846z"/>
		<path fill="none" d="M188.009,29.999c0.271,0.029,0.539,0.02,0.806-0.029c0.015,1.335,0.025,2.67,0.039,4.006l-0.334,0.009
			l-0.332-0.014C188.128,32.646,188.068,31.323,188.009,29.999z"/>
		<path fill="#A4A3A3" d="M228.006,56.989c0.762,0.679,1.521,1.356,2.282,2.035c-0.169-0.11-0.349-0.136-0.54-0.076
			c-0.277,0.059-0.561,0.086-0.846,0.082c-0.336-0.012-0.672-0.023-1.008-0.035l0.098,0.112c0.002-0.36,0.002-0.721,0.004-1.081
			C227.999,57.681,228.002,57.335,228.006,56.989z"/>
		<path fill="#FDF0F0" d="M228.006,56.989c-0.004,0.346-0.007,0.691-0.01,1.037c-0.32-0.097-0.645-0.124-0.977-0.083
			c-0.064-0.326-0.066-0.653-0.008-0.98c-0.041-0.233-0.07-0.469-0.093-0.704C227.281,56.502,227.645,56.746,228.006,56.989z"/>
		<path fill="#343434" d="M230.988,58.979c-0.002,0.352-0.004,0.702-0.006,1.053c-0.344-0.021-0.688-0.042-1.033-0.063l0.063,0.093
			c-0.089-0.371-0.178-0.742-0.267-1.113c0.192-0.06,0.373-0.034,0.542,0.076C230.516,58.926,230.749,58.91,230.988,58.979z"/>
		<path fill="#C7C4C4" d="M229.949,59.969c0.345,0.021,0.689,0.042,1.033,0.063c0.026,0.325,0.01,0.647-0.051,0.968l-0.427-0.025
			l-0.427,0.024C230.035,60.654,229.992,60.312,229.949,59.969z"/>
		<path fill="#181717" d="M156.1,77.777c0.714-0.327,1.429-0.654,2.143-0.98c0.93,0,1.86,0,2.7,0
			c0.719-2.08,1.372-3.971,2.025-5.861c0.011,0.229,0.103,0.416,0.273,0.565c0.132,0.205,0.318,0.347,0.557,0.424
			c0.024,0.333,0.003,0.662-0.063,0.989c-0.189,0.654-0.378,1.311-0.567,1.966c0.239,0.313,0.477,0.629,0.716,0.944
			c0.367,0.684,0.733,1.367,1.1,2.052C162.022,77.844,159.061,77.811,156.1,77.777z"/>
		<path fill="#282828" d="M191.006,87.896c-2.662,0.013-5.324,0.023-7.984,0.035c0.377-0.338,0.754-0.679,1.131-1.018
			c2.285,0.068,4.57,0.137,6.855,0.205C191.002,87.38,191.002,87.639,191.006,87.896z"/>
		<path fill="#080808" d="M174.198,80.969c-0.106-0.834-0.212-1.666-0.318-2.5c0.387-1.162,0.773-2.326,1.16-3.488
			c0.195,0.002,0.384-0.033,0.566-0.104l0.376,0.111c-0.215,1.975-0.43,3.949-0.644,5.925
			C174.958,80.932,174.578,80.949,174.198,80.969z"/>
		<path d="M200.105,78.869c0.018,0.467,0.033,0.934,0.049,1.4c0.006,0.571,0.012,1.146,0.016,1.717
			c-0.381,0.675-0.764,1.349-1.146,2.021c-0.273-0.005-0.549-0.007-0.824-0.005c0.225-0.589,0.449-1.178,0.674-1.767
			c0.404-1.102,0.807-2.201,1.21-3.303L200.105,78.869z"/>
		<path fill="#0C0C0C" d="M175.039,74.979c-0.387,1.164-0.773,2.326-1.16,3.489c-0.612-1.202-1.224-2.405-1.836-3.608
			c0.006-0.41,0.013-0.82,0.02-1.23c0.91,0.021,1.82,0.046,2.73,0.068c0.066,0.197,0.165,0.377,0.296,0.537
			C175.035,74.48,175.018,74.729,175.039,74.979z"/>
		<path fill="#434243" d="M184.152,86.915c-0.377,0.339-0.756,0.679-1.133,1.019c-1.021-0.303-2.045-0.604-3.066-0.906
			c0.667-0.291,1.334-0.582,2.002-0.871C182.688,86.408,183.42,86.661,184.152,86.915z"/>
		<path fill="#1F1E1E" d="M164.984,77.876c-0.367-0.685-0.733-1.368-1.1-2.052c0,0,0.036,0.142,0.037,0.142
			c0.389,0.005,0.776,0.011,1.163,0.015c0.992,0.02,1.983,0.039,2.975,0.059l0.072,0.197
			C167.082,76.781,166.033,77.329,164.984,77.876z"/>
		<path fill="#101010" d="M181.955,86.154c-0.668,0.291-1.335,0.58-2.002,0.871c-0.348-0.252-0.696-0.502-1.044-0.754
			c-0.077-0.367-0.154-0.734-0.231-1.103l0.297-0.146C179.968,85.4,180.961,85.777,181.955,86.154z"/>
		<path fill="#232323" d="M174.198,80.969c0.38-0.02,0.76-0.037,1.14-0.056c0.491,0.703,0.983,1.407,1.475,2.11
			c-0.391,0.025-0.781,0.051-1.171,0.074C175.16,82.389,174.679,81.68,174.198,80.969z"/>
		<path fill="#404041" d="M172.063,73.629c-0.007,0.41-0.013,0.82-0.02,1.23c-0.676,0.055-1.353,0.109-2.029,0.166
			c-0.04-0.351-0.08-0.699-0.12-1.049c0.218-0.334,0.436-0.67,0.654-1.004l0.281-0.172l0.279,0.176
			C171.427,73.193,171.745,73.411,172.063,73.629z"/>
		<path fill="none" d="M200.17,81.986c-0.004-0.571-0.01-1.146-0.016-1.717c0.625,0.238,1.25,0.479,1.875,0.717
			C201.409,81.32,200.79,81.654,200.17,81.986z"/>
		<path fill="#5D5C5D" d="M194.999,87.148c-0.681,0.24-1.362,0.479-2.043,0.72c0.007-0.353,0.013-0.705,0.021-1.058
			c0.365-0.199,0.732-0.396,1.099-0.597c0.354,0.165,0.71,0.329,1.063,0.494l0.082,0.269L194.999,87.148z"/>
		<path d="M169.894,73.977c0.04,0.351,0.08,0.699,0.12,1.049c-0.338,0.242-0.677,0.482-1.015,0.725
			c0.006-0.223,0.015-0.443,0.027-0.664c0.082-0.361,0.163-0.723,0.244-1.083C169.479,74.002,169.687,73.993,169.894,73.977z"/>
		<path d="M177.514,85.156c-0.233-0.336-0.466-0.67-0.699-1.004l0.317-0.301c0.614,0.392,1.229,0.781,1.843,1.172l-0.297,0.146
			C178.29,85.165,177.902,85.16,177.514,85.156z"/>
		<path d="M198.199,84.003c0.275-0.002,0.551,0,0.824,0.005c-0.344,0.578-0.689,1.156-1.035,1.733
			c-0.045-0.359-0.088-0.72-0.133-1.078C197.751,84.329,197.865,84.107,198.199,84.003z"/>
		<path fill="#2A2A2A" d="M197.075,86.332c-0.367,0.184-0.734,0.368-1.103,0.552c-0.027-0.317-0.023-0.636,0.014-0.952
			c0.349-0.27,0.695-0.537,1.043-0.807C197.045,85.527,197.061,85.93,197.075,86.332z"/>
		<path d="M169.026,75.085c-0.012,0.222-0.021,0.442-0.027,0.664c-0.29,0.162-0.579,0.323-0.869,0.485l-0.072-0.196
			C168.381,75.721,168.704,75.402,169.026,75.085z"/>
		<path fill="#0C0C0C" d="M175.641,83.1c0.391-0.024,0.781-0.05,1.171-0.074c0.363,0.177,0.47,0.451,0.32,0.826l-0.317,0.301
			C176.423,83.803,176.032,83.45,175.641,83.1z"/>
		<path d="M177.514,85.156c0.388,0.004,0.776,0.009,1.164,0.014c0.077,0.367,0.154,0.734,0.231,1.102
			C178.444,85.898,177.979,85.527,177.514,85.156z"/>
		<path d="M197.075,86.332c-0.015-0.402-0.03-0.805-0.046-1.207c0.184-0.318,0.459-0.473,0.826-0.462
			c0.045,0.358,0.088,0.719,0.133,1.078C197.686,85.938,197.38,86.135,197.075,86.332z"/>
		<path d="M195.986,85.932c-0.037,0.316-0.041,0.635-0.014,0.952c-0.324,0.089-0.648,0.177-0.975,0.267l0.223-0.174l-0.082-0.268
			c-0.054-0.184-0.087-0.37-0.098-0.561C195.336,85.98,195.65,85.908,195.986,85.932z"/>
		<path fill="#1F1E1E" d="M191.006,87.896c-0.004-0.258-0.004-0.518,0.002-0.776c0.328-0.017,0.658-0.031,0.988-0.048
			c0.001,0.269,0,0.535-0.004,0.804C191.664,87.883,191.334,87.891,191.006,87.896z"/>
		<path fill="#2A2A2A" d="M191.992,87.876c0.004-0.269,0.005-0.535,0.004-0.804c0.326-0.088,0.652-0.174,0.979-0.262
			c-0.007,0.353-0.013,0.705-0.02,1.058C192.635,87.871,192.313,87.873,191.992,87.876z"/>
		<path fill="#252525" d="M185.342,73.794c1.891,0.431,3.781,0.86,5.67,1.291c0.01,0.265,0.012,0.528,0.006,0.794
			c-2.186-0.641-3.229,0.536-3.838,2.409c-0.438-0.354-0.875-0.707-1.313-1.062c-0.249,0-0.495-0.031-0.735-0.096
			c-0.067-0.456-0.136-0.912-0.202-1.367c-0.304-0.285-0.605-0.572-0.91-0.857C184.46,74.536,184.9,74.165,185.342,73.794z"/>
		<path fill="#1A1A1A" d="M174.793,73.697c2.384-0.184,4.768-0.366,7.15-0.549c-0.387,0.334-0.774,0.668-1.162,1.004
			c-1.6,0.277-3.2,0.558-4.8,0.836l-0.376-0.111c-0.172-0.214-0.345-0.428-0.517-0.643
			C174.958,74.074,174.859,73.895,174.793,73.697z"/>
		<path fill="#2D2C2D" d="M157.976,65.129c0.003-0.357,0.007-0.717,0.01-1.074c1.364,0.531,2.728,1.063,4.092,1.596
			c-0.013,0.393-0.026,0.785-0.039,1.18C160.685,66.264,159.33,65.695,157.976,65.129z"/>
		<path fill="#464545" d="M163.621,69.825c0.415-0.455,0.83-0.91,1.209-1.326c-0.658-0.489-1.291-0.96-1.924-1.433
			c0.555-0.028,1.11-0.058,1.665-0.086c0.817,0.322,1.635,0.644,2.452,0.965l-0.094,0.426c-0.32,0.105-0.641,0.211-0.961,0.316
			c0.105,0.437,0.211,0.871,0.316,1.307c-0.155-0.115-0.316-0.124-0.484-0.028C165.073,69.919,164.347,69.872,163.621,69.825z"/>
		<path fill="#434343" d="M180.781,74.152c0.388-0.336,0.775-0.67,1.162-1.004c1.133,0.215,2.266,0.431,3.397,0.646
			c-0.44,0.371-0.882,0.742-1.323,1.113C182.939,74.654,181.859,74.402,180.781,74.152z"/>
		<path d="M200.083,78.936c-0.403,1.101-0.806,2.201-1.21,3.301c-0.34-0.967-0.682-1.934-1.021-2.9
			c0.409-0.456,0.818-0.912,1.229-1.367C199.414,78.29,199.749,78.611,200.083,78.936z"/>
		<path fill="#0C0C0C" d="M168.994,69.02c0.576,0.668,1.151,1.334,1.727,2.002c-0.348,0.022-0.697,0.047-1.045,0.07
			c-0.227-0.357-0.455-0.715-0.682-1.072c-0.031-0.188-0.059-0.377-0.083-0.565L168.994,69.02z"/>
		<path d="M169.676,71.092c0.349-0.023,0.697-0.048,1.045-0.07c0.129,0.651,0.259,1.304,0.388,1.955l-0.279-0.174l-0.281,0.172
			c-0.359,0.006-0.718,0.014-1.076,0.021C169.54,72.361,169.608,71.727,169.676,71.092z"/>
		<path fill="#4E4D4D" d="M192.951,75.197c0.357,0.223,0.715,0.445,1.072,0.668c0.041,0.326,0.053,0.654,0.033,0.982
			c-0.688-0.266-1.377-0.531-2.064-0.798l-0.102-0.354C192.244,75.531,192.598,75.363,192.951,75.197z"/>
		<path d="M199.08,77.967c-0.41,0.456-0.818,0.912-1.229,1.368c-0.302-0.41-0.603-0.819-0.902-1.229
			c0.014-0.336,0.027-0.672,0.043-1.006l0.043-0.195C197.717,77.258,198.398,77.611,199.08,77.967z"/>
		<path d="M164.57,66.98c-0.555,0.028-1.11,0.058-1.665,0.086c-0.319,0.031-0.608-0.049-0.867-0.237
			c0.013-0.394,0.026-0.787,0.039-1.181C162.909,66.094,163.739,66.537,164.57,66.98z"/>
		<path fill="#1F1E1E" d="M194.99,76.091c0.682,0.271,1.363,0.542,2.045,0.813c0,0-0.043,0.195-0.044,0.195
			c-0.454,0.012-0.909,0.022-1.363,0.033c-0.282,0.146-0.495,0.077-0.636-0.209C194.995,76.646,194.994,76.369,194.99,76.091z"/>
		<path fill="#2A2A2A" d="M167.022,67.945c0.657,0.357,1.314,0.716,1.972,1.074l-0.083,0.434c-0.352-0.146-0.703-0.292-1.054-0.438
			c-0.347,0.195-0.648,0.143-0.906-0.162l-0.023-0.482L167.022,67.945z"/>
		<path fill="#0C0C0C" d="M191.018,75.879c0.006-0.266,0.004-0.529-0.006-0.794c0.32,0.015,0.641,0.026,0.961,0.042
			c-0.014,0.191-0.041,0.382-0.082,0.57l0.103,0.354C191.667,75.993,191.342,75.938,191.018,75.879z"/>
		<path fill="#363535" d="M191.891,75.697c0.041-0.188,0.068-0.379,0.082-0.57c0.326,0.023,0.652,0.047,0.979,0.07
			C192.598,75.363,192.244,75.531,191.891,75.697z"/>
		<path fill="#0C0C0C" d="M194.99,76.091c0.004,0.278,0.005,0.556,0.002,0.833c-0.323,0.115-0.635,0.092-0.936-0.074
			c0.02-0.33,0.008-0.656-0.033-0.983C194.346,75.939,194.668,76.016,194.99,76.091z"/>
		<path fill="#FEF9F9" d="M224.993,58.225c-2.996,0.009-5.992,0.017-8.988,0.025c0.31-0.126,0.619-0.252,0.929-0.378
			c0.683,0,1.363,0,2.045,0c1.711-0.012,3.42-0.024,5.129-0.037C224.432,57.897,224.729,58.026,224.993,58.225z"/>
		<path fill="#464545" d="M212.988,56.96c0.352-0.074,0.703-0.148,1.054-0.223l0.128,0.239l-0.168,0.214
			c0.396,0.324,0.795,0.649,1.191,0.974c-1.075,0.59-2.15,1.18-3.228,1.77c-0.251-0.175-0.503-0.349-0.755-0.522l-0.229-0.436
			c0.336-0.422,0.672-0.844,1.009-1.266C212.324,57.46,212.656,57.21,212.988,56.96z"/>
		<path fill="#323132" d="M208.969,61.903c-0.007-0.389-0.014-0.777-0.021-1.167c-0.046-0.254-0.032-0.503,0.036-0.75l-0.024-0.051
			c0.415-0.265,0.829-0.529,1.243-0.794c0.26-0.061,0.521-0.116,0.781-0.166l0.229,0.436c-0.053,0.386-0.104,0.772-0.156,1.158
			C210.359,61.014,209.664,61.458,208.969,61.903z"/>
		<path fill="#0C0C0C" d="M224.993,58.225c-0.267-0.198-0.562-0.327-0.886-0.39c0.313-0.297,0.629-0.594,0.943-0.891
			c0.331,0.061,0.651,0.027,0.963-0.099c0.332,0.039,0.666,0.078,0.997,0.117c-0.059,0.327-0.057,0.654,0.009,0.98
			c-0.013,0.301-0.019,0.603-0.02,0.903C226.332,58.64,225.662,58.432,224.993,58.225z"/>
		<path d="M215.193,58.164c-0.396-0.324-0.795-0.649-1.191-0.974c0.301-0.157,0.62-0.231,0.959-0.222
			c0.657,0.301,1.314,0.602,1.973,0.903c-0.31,0.126-0.619,0.252-0.929,0.378l-0.399-0.102L215.193,58.164z"/>
		<path fill="none" d="M208.193,63.083c0.133,0.094,0.264,0.188,0.396,0.282c-0.165-0.058-0.33-0.115-0.496-0.172L208.193,63.083z"
			/>
		<path fill="#404041" d="M231.087,61.99c-0.034,0.379-0.067,0.759-0.103,1.138c-0.326-0.051-0.623-0.171-0.894-0.36
			C230.424,62.509,230.755,62.249,231.087,61.99z"/>
		<path fill="none" d="M220.977,76.988c-0.147-0.154-0.295-0.311-0.442-0.465c0.095,0.026,0.225,0.024,0.276,0.088
			c0.086,0.1,0.123,0.242,0.181,0.367L220.977,76.988z"/>
		<path fill="#151515" d="M229.949,59.969c0.043,0.343,0.086,0.686,0.13,1.029c-0.343-0.011-0.683-0.021-1.024-0.032
			c-0.012-0.331-0.021-0.662-0.033-0.993c0,0.001-0.076,0.06-0.076,0.06c0.356,0.01,0.713,0.02,1.068,0.029L229.949,59.969z"/>
		<path d="M227.896,58.995c0.336,0.012,0.672,0.023,1.008,0.035c0.015,0.334,0.027,0.668,0.041,1.002c0,0,0.076-0.059,0.076-0.06
			C228.646,59.646,228.271,59.321,227.896,58.995z"/>
		<path fill="#0B0B0B" d="M211.055,60.569c0.053-0.386,0.104-0.772,0.157-1.158c0.252,0.174,0.504,0.348,0.755,0.522
			C211.663,60.146,211.359,60.357,211.055,60.569z"/>
		<path fill="#0C0C0C" d="M227.001,58.848c0.001-0.302,0.007-0.604,0.019-0.904c0.332-0.041,0.656-0.014,0.978,0.083
			c-0.002,0.36-0.002,0.721-0.004,1.081C227.662,59.021,227.332,58.934,227.001,58.848z"/>
		<path fill="none" d="M225.945,72.973c-0.145-0.152-0.287-0.307-0.432-0.459c0.151,0.146,0.305,0.289,0.457,0.436L225.945,72.973z"
			/>
		<path d="M185.18,41.024c-0.111,0.311-0.224,0.621-0.336,0.933c-0.629,0.625-1.26,1.251-1.89,1.877
			c-0.343-0.277-0.687-0.555-1.03-0.832c0.694-1.333,1.389-2.666,2.082-3.998c0.378,0.394,0.756,0.787,1.135,1.18
			C185.063,40.469,185.075,40.749,185.18,41.024z"/>
		<path fill="#3B3B3B" d="M188.009,29.999c0.06,1.324,0.119,2.647,0.179,3.972c-0.334,0.355-0.666,0.71-1,1.064
			c-0.354-0.019-0.711-0.038-1.067-0.058l-0.195,0.164l-0.229-0.117c0.063-1.332,0.123-2.665,0.185-3.998
			c0.06-0.313,0.099-0.631,0.117-0.95l-0.209-0.258l0.18-0.278c0.421,0.141,0.841,0.281,1.261,0.421
			C187.488,29.942,187.75,29.954,188.009,29.999z"/>
		<path fill="#131213" d="M176.963,28.984c0.634-0.36,1.268-0.72,1.901-1.078c0.654-0.003,1.307-0.006,1.96-0.009
			c0.712,0.047,1.425,0.095,2.136,0.142c0.024,0.281,0.037,0.563,0.035,0.845c-1.662,0.382-3.324,0.763-4.986,1.144
			c0.027-0.183-0.031-0.332-0.175-0.448C177.545,29.381,177.254,29.183,176.963,28.984z"/>
		<path d="M172.176,33.055c0.304-0.338,0.608-0.676,0.913-1.014c0.324-0.309,0.649-0.617,0.973-0.927l0.046-0.046
			c0.338-0.012,0.676-0.024,1.014-0.036c0.267-0.021,0.534-0.039,0.801-0.051c-0.014,0.308-0.008,0.614,0.016,0.921l-0.049,0.038
			c-0.318,0.248-0.637,0.497-0.955,0.745c-0.655,0.411-1.31,0.821-1.964,1.231C172.706,33.63,172.441,33.342,172.176,33.055z"/>
		<path fill="#3D3C3C" d="M185.141,40.184c-0.379-0.393-0.757-0.786-1.135-1.18c0.627-1.052,1.253-2.103,1.881-3.153
			c0.279,0.347,0.559,0.692,0.838,1.039c-0.158,0.713-0.315,1.427-0.477,2.141c-0.092,0.32-0.184,0.642-0.275,0.963
			C185.698,40.071,185.422,40.135,185.141,40.184z"/>
		<path fill="#151515" d="M168.077,38.024c-0.042-0.286-0.039-0.572,0.01-0.857c0.307-0.389,0.614-0.775,0.921-1.162l-0.002,0.004
			l0.407-0.079l0.415,0.021c0.343-0.108,0.687-0.216,1.029-0.324l0.117,0.322c-0.614,0.698-1.228,1.396-1.842,2.095
			C168.779,38.037,168.428,38.03,168.077,38.024z"/>
		<path fill="none" d="M185.879,31.026c-0.061,1.333-0.121,2.666-0.184,3.998C185.758,33.692,185.818,32.359,185.879,31.026z"/>
		<path d="M172.176,33.055c0.265,0.287,0.53,0.575,0.796,0.862c-0.334,0.332-0.668,0.663-1.002,0.994
			c-0.266-0.28-0.532-0.56-0.799-0.84C171.506,33.732,171.841,33.394,172.176,33.055z"/>
		<path fill="#FEF9F9" d="M170.708,43.32c0.527,0,1.055,0,1.582,0c0,0.139,0,0.277,0,0.417c-0.527,0-1.055,0-1.582,0
			C170.708,43.598,170.708,43.459,170.708,43.32z"/>
		<path fill="#181818" d="M182.996,28.884c0.002-0.282-0.01-0.563-0.035-0.845l0.049-0.05c0.702-0.042,1.403-0.084,2.105-0.126
			l-0.111,0.129c-0.007,0.349-0.014,0.698-0.02,1.048C184.322,28.988,183.658,28.937,182.996,28.884z"/>
		<path d="M184.984,29.04c0.006-0.35,0.013-0.699,0.02-1.048c0.35-0.038,0.701-0.076,1.051-0.114l-0.111,0.195
			c0.009,0.482,0.015,0.965,0.021,1.447l0.002,0.02l-0.18,0.278l0.209,0.258C185.658,29.73,185.32,29.386,184.984,29.04z"/>
		<path fill="#0C0C0C" d="M168.077,38.024c0.351,0.006,0.703,0.013,1.054,0.02c-0.013,0.334-0.026,0.668-0.039,1.001l-0.034,0.057
			l-0.355,0.043c0,0-0.355-0.039-0.356-0.039c-0.348-0.03-0.695-0.06-1.042-0.089c0-0.313-0.06-0.615-0.18-0.903
			C167.442,38.084,167.759,38.055,168.077,38.024z"/>
		<path fill="#363535" d="M165.947,39.941c0.325,0.075,0.652,0.09,0.982,0.044c0.334-0.003,0.668-0.006,1.002-0.009
			c-0.241,0.357-0.481,0.714-0.722,1.07c-0.353-0.007-0.706-0.013-1.059-0.019C166.083,40.666,166.015,40.304,165.947,39.941z"/>
		<path d="M171.17,34.071c0.267,0.28,0.533,0.56,0.799,0.84c-0.332,0.346-0.664,0.691-0.997,1.038l-0.117-0.322
			c-0.003-0.359-0.006-0.719-0.009-1.078c-0.006-0.211-0.037-0.417-0.094-0.62L171.17,34.071z"/>
		<path d="M186.725,36.89c-0.279-0.347-0.559-0.692-0.838-1.039c-0.015-0.315,0.063-0.606,0.232-0.873
			c0.355,0.02,0.713,0.039,1.068,0.058C187.033,35.653,186.879,36.271,186.725,36.89z"/>
		<path fill="none" d="M176.901,31.735c-0.433,0.366-0.867,0.732-1.3,1.099c0.134-0.286,0.23-0.584,0.29-0.894l0.049-0.038
			C176.274,31.928,176.595,31.872,176.901,31.735z"/>
		<path d="M167.931,39.977c-0.334,0.003-0.668,0.006-1.002,0.009c0.125-0.323,0.25-0.646,0.375-0.969
			c0.347,0.029,0.694,0.059,1.042,0.089C168.349,39.463,168.21,39.754,167.931,39.977z"/>
		<path fill="none" d="M169.092,39.045c0.142,0.152,0.285,0.304,0.427,0.456c-0.153-0.133-0.307-0.267-0.461-0.399L169.092,39.045z"
			/>
		<path fill="#3E3E3E" d="M178.01,30.027c-0.331,0.331-0.662,0.661-0.993,0.991l-0.303-0.336c0.374-0.368,0.748-0.735,1.121-1.104
			C177.979,29.695,178.038,29.845,178.01,30.027z"/>
		<path fill="#3E3E3E" d="M176.901,31.735c-0.306,0.137-0.626,0.192-0.961,0.167c-0.024-0.307-0.03-0.613-0.016-0.921
			c0.284-0.045,0.548-0.145,0.791-0.299l0.303,0.336C176.936,31.251,176.897,31.49,176.901,31.735z"/>
		<path fill="#3E3E3E" d="M175.891,31.94c-0.06,0.31-0.156,0.607-0.29,0.894c-0.232-0.002-0.454-0.052-0.665-0.148
			C175.254,32.438,175.572,32.188,175.891,31.94z"/>
		<path fill="#383838" d="M163.621,69.825c0.726,0.047,1.452,0.094,2.178,0.141c0.139,1.087,0.278,2.171,0.417,3.257
			c-0.367-0.412-0.734-0.826-1.101-1.238l-0.307,0.117c-0.188-0.345-0.376-0.688-0.564-1.035c-0.334,0.146-0.669,0.291-1.003,0.436
			c-0.171-0.15-0.262-0.338-0.273-0.564C163.186,70.564,163.403,70.195,163.621,69.825z"/>
		<path fill="none" d="M149.067,65.335c0.211,0.205,0.423,0.409,0.634,0.612C149.395,65.844,149.184,65.641,149.067,65.335z"/>
		<path fill="none" d="M208.406,59.143c0.207-0.021,0.41-0.065,0.607-0.131l-0.025-0.024c0.02,0.317,0.01,0.633-0.029,0.948
			l0.025,0.051C208.791,59.705,208.6,59.424,208.406,59.143z"/>
		<path fill="#F6F6F6" d="M185.973,39.993c0.092-0.321,0.185-0.643,0.275-0.963c0.348,0.017,0.695,0.034,1.043,0.052
			c-0.152,0.32-0.309,0.64-0.464,0.96C186.544,39.997,186.259,39.981,185.973,39.993z"/>
		<path fill="#CFCECE" d="M208.959,59.936c0.039-0.315,0.049-0.631,0.029-0.948c0.404,0.051,0.809,0.102,1.213,0.153
			C209.788,59.406,209.374,59.671,208.959,59.936z"/>
		<path fill="none" d="M146.246,103.966c0.243-0.252,0.485-0.503,0.728-0.755C146.731,103.463,146.488,103.714,146.246,103.966z"/>
		<path fill="#444444" d="M180.825,27.897c-0.653,0.003-1.307,0.006-1.96,0.009c0.144-0.243,0.275-0.491,0.396-0.746
			c0.595,0.01,1.19,0.018,1.784,0.026C180.998,27.432,180.925,27.669,180.825,27.897z"/>
		<path fill="#181818" d="M180.825,27.897c0.1-0.229,0.173-0.466,0.22-0.711c0.635,0.005,1.27,0.011,1.904,0.016
			c0.031,0.262,0.053,0.524,0.061,0.787l-0.049,0.05C182.25,27.992,181.537,27.944,180.825,27.897z"/>
		<path fill="#444444" d="M183.01,27.989c-0.008-0.263-0.029-0.525-0.061-0.787c0.722,0.221,1.443,0.441,2.166,0.662
			C184.413,27.905,183.712,27.947,183.01,27.989z"/>
		<path d="M185.967,29.54l-0.002-0.02c0.33-0.161,0.66-0.323,0.99-0.484l0.154-0.095c0.039,0.34,0.078,0.68,0.117,1.02
			C186.807,29.821,186.387,29.681,185.967,29.54z"/>
		<path fill="#6D6C6C" d="M186.955,29.036c-0.33,0.161-0.66,0.323-0.99,0.484c-0.008-0.482-0.014-0.965-0.021-1.447
			c0.369-0.037,0.736-0.074,1.104-0.11C187.018,28.32,186.986,28.679,186.955,29.036z"/>
		<path fill="#E1E0E1" d="M170.753,33.929c0.057,0.203,0.088,0.409,0.094,0.62c-0.324,0.08-0.617,0.223-0.879,0.428l-0.183-0.184
			C170.107,34.505,170.43,34.217,170.753,33.929z"/>
		<path fill="#E1E0E1" d="M169.827,35.951l-0.415-0.021l-0.407,0.079c0.261-0.404,0.521-0.809,0.781-1.215
			c-0.001-0.001,0.182,0.183,0.182,0.183C169.897,35.298,169.85,35.623,169.827,35.951z"/>
		<path fill="#E1E0E1" d="M169.007,36.005c-0.307,0.387-0.614,0.773-0.921,1.162c-0.023-0.384-0.048-0.769-0.072-1.152
			C168.346,36,168.676,35.996,169.007,36.005z"/>
		<path fill="none" d="M175.067,28.538c0.319,0.105,0.639,0.211,0.958,0.315c-0.28,0.183-0.561,0.365-0.841,0.547
			C175.127,29.115,175.088,28.828,175.067,28.538z"/>
		<path fill="#3E3E3E" d="M175.184,29.4c0.28-0.182,0.561-0.364,0.841-0.547c0.16,0.275,0.123,0.52-0.112,0.734
			c-0.022,0.345-0.207,0.593-0.555,0.742l-0.324-0.301C175.112,29.827,175.162,29.617,175.184,29.4z"/>
		<path fill="#3E3E3E" d="M175.123,31.032c-0.338,0.012-0.676,0.024-1.014,0.036c0.309-0.347,0.617-0.692,0.925-1.039l0.324,0.301
			C175.206,30.539,175.127,30.773,175.123,31.032z"/>
		<path fill="#3E3E3E" d="M174.062,31.114c-0.324,0.31-0.649,0.618-0.973,0.927C173.413,31.732,173.738,31.424,174.062,31.114z"/>
		<path d="M175.123,31.032c0.004-0.259,0.083-0.493,0.235-0.702c0.348-0.149,0.533-0.397,0.555-0.742
			c0.35-0.201,0.7-0.402,1.05-0.604c0.291,0.198,0.582,0.396,0.872,0.595c-0.374,0.368-0.747,0.735-1.121,1.104
			c-0.243,0.154-0.506,0.254-0.791,0.299C175.656,30.993,175.389,31.011,175.123,31.032z"/>
		<path fill="#646364" d="M225.052,56.944c-0.315,0.297-0.63,0.594-0.944,0.891c-1.709,0.013-3.418,0.025-5.129,0.037
			c0.035-0.266,0.049-0.532,0.043-0.8c0.965-0.29,1.933-0.58,2.896-0.871C222.963,56.449,224.008,56.697,225.052,56.944z"/>
		<path fill="#4C4B4B" d="M219.021,57.072c0.006,0.268-0.008,0.534-0.043,0.8c-0.682,0-1.362,0-2.045,0
			c-0.658-0.302-1.314-0.603-1.973-0.903c1.35-0.258,2.698-0.516,4.047-0.773C219.003,56.487,219.008,56.78,219.021,57.072z"/>
		<path fill="#444445" d="M219.021,57.072c-0.014-0.292-0.019-0.585-0.014-0.877c0.971,0.002,1.94,0.004,2.91,0.006
			C220.953,56.492,219.986,56.782,219.021,57.072z"/>
		<path fill="#AEADAD" d="M228.945,60.032c-0.014-0.334-0.027-0.668-0.043-1.002c0.285,0.004,0.568-0.023,0.846-0.082
			c0.087,0.371,0.176,0.742,0.266,1.113C229.657,60.052,229.302,60.042,228.945,60.032z"/>
		<path fill="#DFDFE0" d="M163.168,74.88c0.189-0.655,0.378-1.312,0.567-1.966c0.366,0.023,0.732,0.048,1.098,0.072
			c-0.088,0.367-0.176,0.736-0.264,1.104c-0.212,0.262-0.425,0.521-0.637,0.781l0.038,0.104
			C163.702,74.943,163.435,74.912,163.168,74.88z"/>
		<path fill="#808080" d="M163.168,74.88c0.267,0.032,0.534,0.063,0.802,0.097c0.048,0.332,0.031,0.662-0.05,0.989l-0.036-0.142
			C163.645,75.509,163.407,75.193,163.168,74.88z"/>
		<path d="M163.241,71.501c0.334-0.146,0.668-0.29,1.003-0.435c-0.063,0.322-0.127,0.646-0.19,0.969l-0.256-0.11
			C163.559,71.848,163.374,71.706,163.241,71.501z"/>
		<path fill="#EFEFF0" d="M164.833,72.986c-0.366-0.024-0.731-0.049-1.098-0.072c0.066-0.327,0.086-0.656,0.063-0.989l0.256,0.11
			c0.252,0.021,0.503,0.043,0.755,0.066l0.307-0.119C165.021,72.316,164.927,72.65,164.833,72.986z"/>
		<path fill="#F4F4F4" d="M194.057,76.85c0.301,0.166,0.612,0.189,0.937,0.074c0.141,0.286,0.354,0.355,0.637,0.209
			c0.44,0.324,0.882,0.646,1.32,0.973c0.301,0.41,0.603,0.819,0.901,1.229c0.34,0.968,0.683,1.935,1.021,2.901
			c-0.225,0.589-0.449,1.178-0.674,1.767c-0.334,0.104-0.448,0.326-0.344,0.66c-0.367-0.011-0.644,0.144-0.826,0.462
			c-0.348,0.27-0.694,0.537-1.043,0.807c-0.336-0.022-0.65,0.049-0.944,0.217c-0.321,0.022-0.646,0.045-0.968,0.066
			c-0.365,0.199-0.732,0.396-1.1,0.596c-0.326,0.088-0.652,0.176-0.979,0.264c-0.33,0.016-0.66,0.031-0.988,0.047
			c-2.285-0.068-4.57-0.137-6.855-0.205c-0.731-0.254-1.465-0.507-2.196-0.76c-0.994-0.377-1.987-0.754-2.98-1.131
			c-0.614-0.392-1.229-0.781-1.843-1.174c0.149-0.375,0.043-0.649-0.32-0.826c-0.492-0.705-0.983-1.408-1.475-2.111
			c0.214-1.977,0.429-3.95,0.644-5.926c1.6-0.277,3.2-0.557,4.799-0.836c1.08,0.252,2.158,0.504,3.238,0.756
			c0.303,0.285,0.605,0.57,0.908,0.855c-0.367,0.395-0.736,0.786-1.105,1.18c-0.242,0.355-0.485,0.711-0.729,1.068
			c-0.144,0.305-0.287,0.611-0.432,0.918c0.117,1.231,0.232,2.465,0.352,3.695c0.99-0.559,1.98-1.118,2.973-1.678
			c0.397-0.887,0.797-1.772,1.195-2.659c0.606-1.873,1.651-3.05,3.838-2.409c0.323,0.059,0.648,0.114,0.975,0.172
			C192.68,76.316,193.368,76.583,194.057,76.85z"/>
		<path d="M175.089,74.234c0.172,0.215,0.344,0.429,0.517,0.643c-0.183,0.07-0.371,0.104-0.566,0.104
			C175.018,74.729,175.035,74.48,175.089,74.234z"/>
		<path fill="#C3C2C2" d="M166.216,73.223c-0.139-1.086-0.278-2.17-0.417-3.257c0.167-0.096,0.329-0.087,0.484,0.028
			c0.243-0.229,0.486-0.455,0.729-0.684l-0.182-0.209l0.122-0.248c0.257,0.305,0.559,0.357,0.906,0.162
			c0.379,0.334,0.758,0.668,1.137,1.004c0.227,0.356,0.455,0.715,0.682,1.071c-0.068,0.636-0.136,1.271-0.204,1.904
			c-0.067,0.335-0.134,0.671-0.202,1.006c-0.081,0.36-0.163,0.722-0.244,1.083c-0.323,0.316-0.646,0.635-0.968,0.953
			c-0.991-0.02-1.983-0.039-2.975-0.059c0.092-0.33,0.085-0.66-0.021-0.985l-0.07,0.077c0.297-0.359,0.594-0.721,0.892-1.082
			C166.119,73.787,166.229,73.531,166.216,73.223z"/>
		<path d="M165.063,74.994c0.105,0.326,0.112,0.654,0.021,0.984c-0.387-0.004-0.774-0.008-1.163-0.014
			c0.081-0.326,0.097-0.656,0.049-0.99l-0.038-0.104C164.309,74.912,164.686,74.953,165.063,74.994z"/>
		<path d="M169.271,74.002c0.067-0.335,0.134-0.671,0.202-1.006c0.358-0.008,0.717-0.016,1.076-0.021
			c-0.218,0.334-0.436,0.668-0.654,1.002C169.687,73.993,169.479,74.002,169.271,74.002z"/>
		<path fill="#363535" d="M194.074,86.215c0.322-0.021,0.646-0.044,0.968-0.066c0.011,0.19,0.044,0.377,0.097,0.562
			C194.784,86.544,194.43,86.38,194.074,86.215z"/>
		<path d="M187.18,78.288c-0.397,0.887-0.797,1.772-1.195,2.659c0.115-0.258,0.052-0.457-0.191-0.6l-0.311-0.248
			c-0.145-0.201-0.324-0.244-0.543-0.125c0.31-0.916,0.617-1.832,0.928-2.748C186.305,77.581,186.742,77.936,187.18,78.288z"/>
		<path fill="#F4F4F4" d="M185.866,77.229c-0.31,0.914-0.618,1.83-0.927,2.746c-0.355-0.336-0.713-0.672-1.068-1.008
			c0.236-0.263,0.332-0.568,0.281-0.92c0.32-0.32,0.641-0.645,0.959-0.965l0.02,0.05C185.371,77.195,185.617,77.229,185.866,77.229z
			"/>
		<path fill="#0C0C0C" d="M183.822,76.941c0.369-0.393,0.736-0.785,1.104-1.178c0.067,0.455,0.136,0.911,0.203,1.367
			c0,0-0.021-0.05-0.021-0.051C184.682,77.034,184.252,76.988,183.822,76.941z"/>
		<path fill="#1F1E1E" d="M166.928,68.371l0.023,0.482l-0.122,0.248l0.182,0.209c-0.348-0.207-0.696-0.416-1.044-0.623
			C166.288,68.582,166.608,68.477,166.928,68.371z"/>
		<path fill="#ECE8E8" d="M165.967,68.688c0.348,0.207,0.696,0.416,1.044,0.623c-0.243,0.229-0.485,0.455-0.729,0.684
			C166.178,69.561,166.072,69.124,165.967,68.688z"/>
		<path d="M168.994,70.02c-0.379-0.334-0.758-0.67-1.137-1.004c0.351,0.146,0.703,0.291,1.054,0.438
			C168.935,69.643,168.963,69.831,168.994,70.02z"/>
		<path fill="#1F1E1E" d="M196.949,78.104c-0.439-0.324-0.881-0.646-1.32-0.972c0.453-0.011,0.908-0.022,1.362-0.034
			C196.979,77.434,196.963,77.77,196.949,78.104z"/>
		<path d="M169.827,35.951c0.023-0.328,0.07-0.653,0.141-0.975c0.262-0.205,0.555-0.348,0.879-0.428
			c0.003,0.359,0.006,0.719,0.009,1.078C170.513,35.735,170.17,35.843,169.827,35.951z"/>
		<path d="M166.216,73.223c0.013,0.309-0.097,0.564-0.331,0.769c-0.252,0.004-0.502-0.011-0.752-0.041l-0.324-0.097l-0.24,0.236
			c0.088-0.367,0.176-0.734,0.264-1.104c0.094-0.336,0.188-0.67,0.282-1.004C165.482,72.396,165.849,72.811,166.216,73.223z"/>
		<path fill="#AEADAD" d="M164.809,72.102c-0.251-0.022-0.503-0.045-0.755-0.065c0.063-0.322,0.127-0.646,0.19-0.97
			C164.432,71.412,164.621,71.757,164.809,72.102z"/>
		<path fill="#AEACAC" d="M165.063,74.994c-0.377-0.041-0.754-0.082-1.131-0.123c0.212-0.262,0.425-0.521,0.637-0.781l0.24-0.236
			l0.324,0.097c-0.047,0.374-0.093,0.749-0.14,1.122L165.063,74.994z"/>
		<path fill="#2F2E2E" d="M183.871,78.967c0.355,0.336,0.713,0.672,1.068,1.008c0.218-0.117,0.397-0.074,0.541,0.127
			c0.104,0.082,0.207,0.164,0.312,0.246c0.243,0.144,0.308,0.344,0.192,0.602c-0.991,0.559-1.981,1.117-2.973,1.677
			c-0.117-1.231-0.234-2.464-0.352-3.696C183.064,78.941,183.469,78.954,183.871,78.967z"/>
		<path fill="#151515" d="M183.822,76.941c0.43,0.047,0.857,0.093,1.289,0.14c-0.318,0.321-0.639,0.646-0.959,0.966
			c-0.354-0.012-0.707-0.023-1.061-0.035C183.336,77.654,183.579,77.299,183.822,76.941z"/>
		<path d="M183.093,78.012c0.353,0.012,0.706,0.023,1.06,0.035c0.052,0.352-0.043,0.657-0.28,0.92
			c-0.401-0.013-0.808-0.025-1.21-0.037C182.805,78.623,182.949,78.316,183.093,78.012z"/>
		<path fill="#0C0C0C" d="M164.993,75.072c0.046-0.375,0.093-0.75,0.14-1.123c0.25,0.031,0.5,0.045,0.752,0.041
			C165.587,74.352,165.29,74.712,164.993,75.072z"/>
		<path d="M185.792,80.348c-0.104-0.082-0.207-0.164-0.312-0.246L185.792,80.348z"/>
	</g>
</g>
</svg>
