<svg xmlns="http://www.w3.org/2000/svg" viewBox="15.544999999999996 16 30.833000000000006 34">
  <path d="M27.255 49.999l-.73-30.967q-3.188 1.195-4.98 3.74-1.772 2.546-1.772 6.331 0 .863.089 1.417.11.531.221.863.111.31.2.487.11.177.11.31-1.173 0-2.08-.221-.908-.244-1.528-.753-.598-.508-.93-1.35-.31-.84-.31-2.08 0-1.505.641-2.966.664-1.46 1.793-2.767 1.151-1.305 2.679-2.412 1.55-1.107 3.298-1.904 1.77-.819 3.674-1.261Q29.556 16 31.46 16q.509 0 .93.022.442.022.884.066l.399 27.89 9.54-27.758h3.165L33.784 50h-6.53z" fill="#a56de2"/>
</svg>